<?xml version="1.0" encoding="utf-8"?>
<!-- Generator: Adobe Illustrator 25.1.0, SVG Export Plug-In . SVG Version: 6.00 Build 0)  -->
<svg version="1.1" id="Layer_1" xmlns="http://www.w3.org/2000/svg" xmlns:xlink="http://www.w3.org/1999/xlink" x="0px" y="0px"
	 viewBox="0 0 1154.83 551.21" style="enable-background:new 0 0 1154.83 551.21;" xml:space="preserve">
<style type="text/css">
	.st0{fill:#FFFFFF;}
</style>
<g>
	<g>
		<circle cx="91.63" cy="275.4" r="69.41"/>
		<g>
			<path class="st0" d="M88.05,260.9l5.88-5.6c0,0-6.3-8.27-20.03-8.27s-28.16,11.49-28.16,27.88s10.93,28.86,27.32,28.86
				s26.9-7.85,26.9-29.56H72.85v7.43h17.86c0,0-0.56,14.43-17.86,14.43c0,0-19.26-1.62-19.26-20.67c0,0,0.14-20.1,20.6-20.1
				C74.18,255.3,80.35,254.45,88.05,260.9z"/>
			<polygon class="st0" points="120,273.93 120,263.28 126.86,263.28 126.86,273.93 137.51,273.93 137.51,281.07 127.14,281.07
				127.14,292.14 120,292.14 120,281.07 109.07,281.07 109.07,273.81 			"/>
		</g>
	</g>
	<g>
    <symbol id="1">
		<circle cx="1063.63" cy="275.4" r="69.41"/>
		<g>
			<path class="st0" d="M1081.94,294.27c-4.99,0-9.97,0-14.96,0c-0.96,0-0.96,0-0.97-0.97c-0.1-11.13-0.19-22.26-0.29-33.4
				c-0.02-1.93-0.01-1.92,1.71-2.66c1.79-0.77,3.66-0.97,5.58-0.87c3.42,0.19,6.63,1.15,9.54,3.02c4.96,3.19,8.06,7.76,9.27,13.66
				c0.09,0.43,0.19,0.47,0.57,0.34c3.73-1.29,7.2-0.77,10.31,1.74c1.85,1.49,3.04,3.45,3.6,5.79c0.75,3.14,0.22,6.06-1.54,8.72
				c-1.51,2.28-3.6,3.74-6.2,4.41c-1.1,0.29-2.22,0.34-3.36,0.26c-0.6-0.05-1.2-0.05-1.8-0.05
				C1089.58,294.26,1085.76,294.27,1081.94,294.27z"/>
			<path class="st0" d="M1064.84,272.18c0.09,3.34,0.22,6.68,0.26,10.02c0.03,2.61-0.28,5.2-0.4,7.81
				c-0.04,0.95-0.11,1.89-0.16,2.83c-0.02,0.39-0.08,0.77-0.31,1.1c-0.28,0.39-0.64,0.61-1.12,0.47c-0.48-0.14-0.76-0.49-0.8-1.01
				c-0.1-1.52-0.16-3.05-0.29-4.57c-0.55-6.41,0.04-12.82,0.12-19.23c0.04-2.92,0.16-5.83,0.23-8.75c0.01-0.49,0.04-0.97,0.27-1.41
				c0.16-0.3,0.37-0.54,0.73-0.56c0.38-0.03,0.65,0.17,0.83,0.49c0.22,0.37,0.32,0.77,0.33,1.21
				C1064.63,264.45,1064.73,268.31,1064.84,272.18C1064.83,272.18,1064.83,272.18,1064.84,272.18z"/>
			<path class="st0" d="M1058.39,274.54c0.09-4.2,0.18-8.08,0.27-11.97c0.01-0.44,0.13-0.84,0.36-1.2c0.35-0.53,0.99-0.57,1.38-0.07
				c0.27,0.35,0.41,0.76,0.42,1.23c0.15,5.58,0.23,11.17,0.48,16.74c0.2,4.34-0.21,8.65-0.45,12.96c-0.02,0.29-0.03,0.58-0.05,0.87
				c-0.03,0.68-0.57,1.32-1.11,1.32c-0.45,0-0.85-0.52-0.9-1.23c-0.14-2.12-0.22-4.25-0.41-6.36
				C1058.02,282.64,1058.37,278.43,1058.39,274.54z"/>
			<path class="st0" d="M1057.7,282.77c0.23,1.96-0.15,4.1-0.33,6.26c-0.12,1.36-0.25,2.73-0.4,4.09c-0.08,0.8-0.44,1.32-0.88,1.32
				c-0.44,0-0.76-0.58-0.81-1.41c-0.17-2.6-0.38-5.2-0.52-7.8c-0.1-1.97,0.07-3.94,0.11-5.91c0.08-4.31,0.19-8.62,0.29-12.92
				c0.01-0.46,0.02-0.93,0.25-1.35c0.17-0.31,0.42-0.58,0.81-0.53c0.4,0.06,0.6,0.35,0.68,0.75c0.12,0.67,0.13,1.34,0.15,2.02
				C1057.26,272.37,1057.48,277.46,1057.7,282.77z"/>
			<path class="st0" d="M1047.73,276.73c0.1-4.58,0.17-7.94,0.24-11.31c0.01-0.45,0.04-0.89,0.21-1.31
				c0.14-0.35,0.39-0.59,0.78-0.56c0.39,0.03,0.57,0.32,0.64,0.7c0.23,1.28,0.15,2.58,0.2,3.87c0.22,5.21,0.42,10.42,0.61,15.64
				c0.06,1.68-0.23,3.35-0.35,5.02c-0.1,1.35-0.23,2.69-0.35,4.04c-0.04,0.4-0.05,0.81-0.28,1.17c-0.14,0.22-0.29,0.42-0.57,0.42
				c-0.3,0-0.46-0.23-0.59-0.48c-0.16-0.32-0.19-0.66-0.21-1.01C1047.64,287.14,1047.4,281.33,1047.73,276.73z"/>
			<path class="st0" d="M1051.39,275.42c0.08-3.32,0.15-6.65,0.23-9.97c0.01-0.41,0.08-0.81,0.3-1.16c0.16-0.26,0.4-0.42,0.71-0.38
				c0.28,0.04,0.46,0.23,0.55,0.52c0.08,0.26,0.13,0.52,0.14,0.79c0.16,4.15,0.32,8.3,0.48,12.45c0.08,2.03,0.2,4.05,0.24,6.08
				c0.04,2.07-0.31,4.12-0.46,6.18c-0.07,0.98-0.17,1.96-0.26,2.94c-0.03,0.41-0.06,0.81-0.29,1.17c-0.35,0.55-0.84,0.52-1.13-0.07
				c-0.13-0.26-0.17-0.55-0.2-0.84c-0.43-5.36-0.62-10.72-0.37-16.1c0.02-0.54,0-1.08,0-1.62
				C1051.36,275.42,1051.38,275.42,1051.39,275.42z"/>
			<path class="st0" d="M1046.56,275.48c-0.02,2.22,0.32,5.17,0.21,8.12c-0.13,3.24-0.38,6.48-0.57,9.72c0,0.02,0,0.04,0,0.06
				c-0.06,0.53-0.47,1.07-0.81,1.06c-0.34,0-0.71-0.52-0.74-1.11c-0.09-1.54-0.13-3.09-0.25-4.63c-0.58-7.55,0.05-15.1,0.12-22.65
				c0-0.42,0.03-0.86,0.21-1.24c0.16-0.32,0.37-0.59,0.78-0.56c0.4,0.03,0.53,0.34,0.62,0.65c0.07,0.23,0.08,0.49,0.09,0.74
				C1046.33,268.68,1046.43,271.71,1046.56,275.48z"/>
			<path class="st0" d="M1043.12,281.31c0.25,2.73-0.29,6.08-0.46,9.45c-0.04,0.83-0.11,1.66-0.18,2.48
				c-0.02,0.19-0.04,0.39-0.1,0.56c-0.1,0.27-0.26,0.54-0.59,0.53c-0.3-0.01-0.45-0.23-0.57-0.49c-0.1-0.2-0.13-0.4-0.15-0.61
				c-0.19-3.06-0.42-6.13-0.55-9.19c-0.11-2.65,0.15-5.29,0.22-7.94c0.08-2.95,0.22-5.91,0.32-8.86c0.01-0.4,0.09-0.77,0.3-1.1
				c0.25-0.39,0.6-0.38,0.86,0.01c0.26,0.39,0.27,0.84,0.29,1.28c0.13,2.99,0.24,5.98,0.37,8.98
				C1042.94,277.83,1043.02,279.24,1043.12,281.31z"/>
			<path class="st0" d="M1037.34,278.76c0.13-3.13,0.23-5.66,0.34-8.19c0.01-0.21,0.01-0.43,0.06-0.63c0.1-0.39,0.26-0.8,0.72-0.75
				c0.43,0.04,0.6,0.42,0.63,0.84c0.05,0.58,0.09,1.16,0.12,1.73c0.19,4.05,0.39,8.1,0.57,12.16c0.06,1.26-0.12,2.51-0.21,3.76
				c-0.15,1.89-0.3,3.77-0.45,5.66c-0.02,0.21-0.04,0.42-0.14,0.61c-0.12,0.24-0.3,0.41-0.57,0.39c-0.25-0.02-0.43-0.16-0.55-0.43
				c-0.33-0.79-0.21-1.64-0.28-2.45c-0.19-2.1-0.34-4.2-0.44-6.3C1037.04,282.82,1037.36,280.49,1037.34,278.76z"/>
			<path class="st0" d="M1032.9,284.1c-0.16,1.9-0.33,3.86-0.49,5.83c-0.09,1.1-0.17,2.2-0.26,3.29c0,0.04,0,0.08-0.01,0.12
				c-0.03,0.35-0.05,0.79-0.47,0.8c-0.42,0.02-0.48-0.42-0.52-0.77c-0.12-1.33-0.23-2.65-0.35-3.98c-0.12-1.37-0.21-2.73-0.37-4.1
				c-0.16-1.42,0.1-2.81,0.22-4.22c0.15-1.89,0.35-3.77,0.54-5.65c0.03-0.29,0.11-0.57,0.19-0.84c0.04-0.15,0.16-0.28,0.33-0.26
				c0.14,0.02,0.23,0.12,0.27,0.26c0.05,0.21,0.13,0.41,0.14,0.62c0.16,2.89,0.51,5.77,0.77,8.66
				C1032.89,283.93,1032.89,283.98,1032.9,284.1z"/>
			<path class="st0" d="M1036.27,284.45c-0.16,1.83-0.32,3.63-0.48,5.44c-0.1,1.11-0.19,2.23-0.28,3.34c-0.01,0.1,0,0.2-0.01,0.29
				c-0.05,0.29-0.11,0.63-0.46,0.62c-0.32-0.01-0.46-0.32-0.5-0.61c-0.07-0.57-0.11-1.15-0.17-1.73c-0.19-2.11-0.35-4.23-0.58-6.34
				c-0.13-1.21,0.1-2.39,0.2-3.57c0.16-1.88,0.36-3.76,0.53-5.65c0.03-0.33,0.11-0.65,0.21-0.96c0.06-0.17,0.18-0.26,0.34-0.26
				c0.18-0.01,0.26,0.13,0.3,0.29c0.05,0.21,0.12,0.41,0.13,0.62c0.16,2.74,0.48,5.46,0.76,8.18
				C1036.27,284.24,1036.27,284.36,1036.27,284.45z"/>
			<path class="st0" d="M1029.23,284.37c-0.22,3.03-0.43,5.98-0.64,8.92c-0.02,0.29-0.06,0.64-0.41,0.67
				c-0.37,0.03-0.44-0.31-0.46-0.6c-0.1-1.11-0.2-2.23-0.29-3.34c-0.14-1.81-0.28-3.62-0.4-5.43c-0.09-1.2,0.15-2.39,0.24-3.58
				c0.11-1.62,0.33-3.23,0.4-4.85c0.01-0.29,0.06-0.58,0.12-0.86c0.05-0.25,0.07-0.62,0.4-0.6c0.3,0.02,0.35,0.38,0.37,0.64
				c0.06,1.02,0.11,2.04,0.22,3.06c0.19,1.86,0.31,3.73,0.46,5.6C1029.24,284.15,1029.23,284.3,1029.23,284.37z"/>
			<path class="st0" d="M1023.6,284.3c0.19-1.74,0.37-3.52,0.59-5.3c0.09-0.71,0.05-1.43,0.23-2.13c0.06-0.24,0.08-0.56,0.38-0.56
				c0.3,0.01,0.34,0.34,0.36,0.58c0.07,0.65,0.11,1.31,0.16,1.96c0.16,1.98,0.61,3.94,0.5,5.93c-0.13,2.37-0.4,4.73-0.62,7.09
				c-0.03,0.28-0.09,0.59-0.4,0.62c-0.37,0.03-0.45-0.3-0.48-0.59c-0.08-0.63-0.12-1.27-0.18-1.9
				C1023.96,288.12,1023.79,286.24,1023.6,284.3z"/>
			<path class="st0" d="M1022.5,284.5c-0.18,1.5-0.38,3.11-0.58,4.72c-0.03,0.2-0.12,0.39-0.35,0.38c-0.22-0.01-0.35-0.17-0.38-0.37
				c-0.07-0.38-0.1-0.76-0.15-1.15c-0.11-0.88-0.18-1.77-0.34-2.64c-0.25-1.37,0.13-2.68,0.27-4.02c0.07-0.63,0.17-1.26,0.28-1.89
				c0.03-0.19,0.13-0.39,0.38-0.35c0.2,0.03,0.27,0.21,0.29,0.39c0.2,1.53,0.4,3.06,0.59,4.59
				C1022.51,284.23,1022.5,284.31,1022.5,284.5z"/>
		</g>
	</g>
	<g>
		<circle cx="901.05" cy="275.4" r="69.41"/>
		<path class="st0" d="M943.73,274.05c0,0.9,0,1.79,0,2.69c-0.25,7.3-2.17,14.13-5.94,20.4c-5.75,9.55-13.99,15.96-24.65,19.21
			c-3.46,1.06-7.02,1.6-10.64,1.71c-0.95,0-1.91,0-2.86,0c-11.95-0.52-22.02-5.16-30.12-13.93c-5.51-5.97-8.95-13.02-10.43-21.02
			c-0.74-4.01-0.96-8.06-0.46-12.11c1.78-14.57,9.07-25.55,21.76-32.91c4.45-2.58,9.27-4.2,14.37-4.89
			c13.3-1.78,25.06,1.7,35.06,10.68c7,6.29,11.34,14.17,13.17,23.41C943.42,269.52,943.65,271.78,943.73,274.05z M881.1,256.42
			c-2.34,0.4-4.67,0.89-6.93,1.66c-1.81,0.62-2.85,2.5-2.53,4.43c0.31,1.83,1.97,3.24,3.85,3.27c0.76,0.01,1.45-0.24,2.16-0.43
			c5.14-1.4,10.38-1.96,15.69-2.07c4.73-0.09,9.44,0.23,14.11,0.97c4.05,0.64,8.01,1.6,11.86,3.01c2.39,0.88,4.7,1.94,6.91,3.22
			c1.58,0.92,3.29,0.81,4.61-0.24c2.24-1.78,1.97-5.14-0.54-6.62c-3.95-2.33-8.18-4.01-12.58-5.27c-7.27-2.07-14.71-3-22.26-3.06
			C890.64,255.26,885.85,255.6,881.1,256.42z M887.03,270.36c-3.45,0.38-6.85,1.04-10.17,2.04c-1.3,0.39-2.11,1.3-2.34,2.63
			c-0.22,1.27,0.2,2.35,1.2,3.15c1,0.8,2.12,0.87,3.32,0.51c3.83-1.15,7.76-1.75,11.75-1.96c4.45-0.23,8.88,0.04,13.28,0.81
			c6.11,1.07,11.9,2.99,17.24,6.2c1.63,0.98,3.65,0.45,4.58-1.14c0.94-1.6,0.43-3.59-1.19-4.58c-2.95-1.8-6.07-3.25-9.33-4.41
			c-6.94-2.47-14.11-3.6-21.58-3.64C891.61,270.01,889.32,270.11,887.03,270.36z M888.09,284.24c-3.3,0.32-6.56,0.89-9.79,1.62
			c-1.43,0.33-2.3,1.73-1.99,3.14c0.32,1.45,1.67,2.35,3.14,2.04c3.02-0.65,6.06-1.21,9.14-1.51c3.72-0.36,7.45-0.41,11.18-0.03
			c3.18,0.33,6.29,0.97,9.32,1.98c2.73,0.91,5.32,2.1,7.78,3.6c0.62,0.38,1.28,0.55,1.99,0.41c1.12-0.22,1.93-1.05,2.13-2.14
			c0.2-1.12-0.26-2.15-1.28-2.77c-2.4-1.47-4.92-2.69-7.56-3.67c-5.72-2.12-11.64-3.02-18.73-3.01
			C892.31,283.91,890.2,284.04,888.09,284.24z"/>
	</g>
	<g>
		<circle cx="738.47" cy="275.4" r="69.41"/>
		<path class="st0" d="M747.06,302.48c-2.25,0-4.49,0-6.74,0c-0.05-0.04-0.1-0.03-0.15-0.03c-0.87,0.02-1.74-0.03-2.61-0.03
			c-1.37,0.01-2.74-0.02-4.12-0.03c-0.91-0.01-1.83,0.03-2.74-0.03c-0.98-0.06-1.95,0.01-2.92-0.05c-0.88-0.06-1.76,0.01-2.64-0.05
			c-1.43-0.09-2.87,0.01-4.3-0.06c-1.12-0.05-2.24,0-3.36-0.05c-1.12-0.05-2.24-0.07-3.36-0.15c-2.01-0.15-4.02-0.37-5.98-0.84
			c-1.86-0.45-3.49-1.34-4.78-2.79c-0.95-1.06-1.61-2.3-2.1-3.63c-0.6-1.65-0.93-3.35-1.16-5.08c-0.16-1.21-0.28-2.43-0.39-3.65
			c-0.07-0.75-0.12-1.49-0.18-2.24c-0.1-1.32-0.16-2.63-0.18-3.95c-0.01-0.47-0.01-0.95-0.02-1.42c-0.04-1.93-0.03-3.87,0-5.8
			c-0.01-1.1,0.01-2.19,0.06-3.29c0.05-1.08,0.13-2.17,0.23-3.25c0.09-0.97,0.17-1.94,0.28-2.91c0.11-0.97,0.22-1.93,0.36-2.9
			c0.16-1.07,0.29-2.15,0.52-3.22c0.36-1.68,1.02-3.22,2.13-4.55c1.19-1.43,2.72-2.35,4.49-2.88c1.04-0.31,2.11-0.42,3.19-0.49
			c0.92-0.06,1.84-0.1,2.76-0.19c0.33-0.03,0.65-0.03,0.98-0.05c0.82-0.04,1.63-0.09,2.45-0.12c1.21-0.05,2.41-0.12,3.62-0.16
			c0.83-0.03,1.65-0.07,2.48-0.1c2.14-0.08,4.28-0.12,6.42-0.13c0.38,0,0.76-0.02,1.14-0.02c1.7,0.01,3.4-0.05,5.1-0.03
			c2.24,0,4.47,0,6.71,0c0.07,0,0.14,0,0.21,0c2.09-0.01,4.18,0.03,6.27,0.03c0.92,0,1.85-0.01,2.77,0.02
			c0.78,0.03,1.55-0.02,2.33,0.03c0.7,0.04,1.4,0,2.09,0.05c0.66,0.05,1.31,0.01,1.97,0.05c1.11,0.06,2.22,0.08,3.33,0.1
			c2.47,0.05,4.92,0.33,7.33,0.89c1.85,0.42,3.47,1.29,4.79,2.67c1.05,1.1,1.78,2.39,2.31,3.8c0.59,1.55,0.92,3.16,1.16,4.79
			c0.15,1.01,0.26,2.03,0.35,3.06c0.07,0.75,0.12,1.51,0.18,2.27c0.06,0.82,0.11,1.65,0.19,2.47c0.03,0.32,0.02,0.64,0.03,0.96
			c0.08,2.86,0.07,5.71,0.05,8.57c-0.01,1.07-0.02,2.14-0.08,3.21c-0.06,1-0.14,1.99-0.24,2.99c-0.11,1.17-0.23,2.33-0.38,3.49
			c-0.28,2.09-0.55,4.19-1.14,6.23c-0.43,1.46-0.99,2.85-1.91,4.08c-0.97,1.3-2.23,2.22-3.75,2.79c-1.04,0.39-2.12,0.57-3.23,0.66
			c-1.07,0.08-2.15,0.16-3.22,0.24c-0.63,0.05-1.26,0.08-1.88,0.12c-0.95,0.07-1.91,0.1-2.86,0.19c-0.33,0.03-0.65,0.03-0.98,0.05
			c-0.81,0.04-1.62,0.08-2.43,0.13c-1.82,0.1-3.64,0.12-5.45,0.15c-0.57,0.01-1.14,0.01-1.71,0.02
			C747.92,302.47,747.49,302.42,747.06,302.48z M735.69,248.38c1.99,0,3.98,0,5.97-0.01c0.21,0,0.43,0.02,0.64-0.01
			c0-0.02,0-0.03,0-0.05c-2.26,0-4.53,0-6.79,0c0,0.02,0,0.03,0,0.05C735.57,248.37,735.63,248.38,735.69,248.38z M730.77,264.03
			c0,7.58,0.01,15.16,0.01,22.75c0,0.01,0.01,0.02,0.01,0.02c0.03,0.02,0.01-0.03,0.03,0.02c6.64-3.81,13.27-7.62,19.93-11.45
			c-6.67-3.83-13.31-7.64-19.93-11.45C730.77,263.96,730.77,263.99,730.77,264.03z"/>
	</g>
	<g>
		<circle cx="579.37" cy="275.4" r="69.41"/>
		<path class="st0" d="M600.15,308.53c-0.04,0-0.09,0-0.13,0c-0.44-0.25-0.64-0.7-0.91-1.09c-1.28-1.86-2.45-3.8-3.46-5.82
			c-0.06-0.12-0.13-0.24-0.2-0.36c-0.16-0.3-0.1-0.48,0.21-0.61c0.65-0.27,1.3-0.54,1.94-0.82c1.54-0.68,3.04-1.45,4.49-2.3
			c0.28-0.16,0.28-0.25,0.03-0.47c-0.27-0.23-0.56-0.43-0.82-0.66c-0.24-0.22-0.48-0.26-0.78-0.12c-1.02,0.48-2.06,0.92-3.12,1.33
			c-3.28,1.27-6.65,2.2-10.13,2.76c-1.55,0.25-3.1,0.42-4.66,0.52c-1.47,0.1-2.94,0.16-4.4,0.11c-1.73-0.06-3.46-0.18-5.18-0.42
			c-2.11-0.29-4.21-0.68-6.27-1.23c-2.68-0.71-5.3-1.62-7.84-2.74c-0.27-0.12-0.54-0.25-0.81-0.37c-0.21-0.1-0.41-0.08-0.6,0.07
			c-0.32,0.26-0.65,0.52-0.97,0.78c-0.2,0.17-0.19,0.27,0.04,0.41c0.32,0.19,0.64,0.38,0.97,0.56c1.74,0.95,3.53,1.81,5.38,2.52
			c0.43,0.16,0.49,0.31,0.28,0.73c-0.79,1.58-1.68,3.11-2.63,4.6c-0.49,0.76-0.99,1.52-1.52,2.25c-0.12,0.16-0.25,0.28-0.43,0.36
			c-0.02,0-0.04,0-0.06,0c-2.08-0.36-4-1.23-5.94-2.01c-2.61-1.05-5.13-2.29-7.59-3.67c-1.95-1.1-3.84-2.29-5.69-3.55
			c-0.68-0.46-1.33-0.96-2.01-1.42c-0.39-0.26-0.53-0.61-0.55-1.05c-0.05-1.14-0.09-2.29-0.12-3.43c-0.01-0.37,0.01-0.74-0.06-1.11
			c0-1.68,0-3.37,0-5.05c0.07-0.33,0.06-0.68,0.05-1.01c-0.01-3.12,0.38-6.19,0.91-9.25c0.54-3.14,1.31-6.23,2.27-9.27
			c0.86-2.71,1.89-5.36,3.04-7.96c0.72-1.63,1.5-3.22,2.34-4.79c1.13-2.11,2.34-4.18,3.64-6.2c0.04-0.06,0.09-0.12,0.12-0.19
			c0.3-0.68,0.86-1.03,1.52-1.32c2.23-0.98,4.48-1.88,6.79-2.64c2.71-0.9,5.47-1.63,8.28-2.18c0.5-0.1,1.01-0.1,1.52-0.16
			c0.31-0.04,0.47,0.15,0.59,0.39c0.47,0.92,0.94,1.84,1.38,2.78c0.16,0.35,0.32,0.7,0.48,1.05c0.1,0.22,0.26,0.29,0.49,0.26
			c1.17-0.17,2.34-0.31,3.52-0.41c0.73-0.06,1.46-0.12,2.2-0.15c1.31-0.05,2.62-0.16,3.92-0.11c1.87,0.06,3.74,0.09,5.61,0.3
			c1.09,0.12,2.18,0.23,3.27,0.38c0.37,0.05,0.46,0.01,0.62-0.34c0.4-0.89,0.81-1.78,1.24-2.67c0.19-0.38,0.43-0.74,0.6-1.13
			c0.12-0.28,0.34-0.34,0.62-0.33c1.14,0.06,2.25,0.32,3.36,0.57c2.59,0.58,5.14,1.34,7.64,2.21c2.13,0.75,4.22,1.6,6.27,2.56
			c0.17,0.08,0.27,0.2,0.36,0.35c1.09,1.67,2.15,3.35,3.13,5.09c0.79,1.4,1.56,2.81,2.26,4.26c1.27,2.62,2.41,5.29,3.38,8.03
			c0.81,2.27,1.5,4.58,2.07,6.91c0.69,2.81,1.21,5.66,1.55,8.54c0.17,1.43,0.29,2.86,0.32,4.29c0.02,1.19,0.06,2.38,0.06,3.57
			c0,0.06-0.02,0.13,0.03,0.18c0,0.62,0,1.24,0,1.85c-0.03,0.03-0.03,0.08-0.03,0.12c0.02,1.37-0.02,2.75-0.06,4.12
			c-0.02,0.73-0.03,1.47-0.12,2.2c-0.04,0.29-0.18,0.49-0.4,0.65c-1.58,1.17-3.21,2.28-4.88,3.33c-2.26,1.42-4.59,2.7-7,3.85
			c-2.14,1.03-4.34,1.94-6.58,2.74c-0.47,0.17-0.95,0.33-1.42,0.5C601.13,308.38,600.64,308.44,600.15,308.53z M586.01,280.3
			c0.42,2.36,1.5,4.33,3.44,5.76c1.54,1.13,3.28,1.58,5.18,1.29c1.53-0.24,2.83-0.95,3.93-2.03c0.97-0.96,1.66-2.09,2.11-3.38
			c0.5-1.44,0.65-2.91,0.5-4.43c-0.12-1.17-0.45-2.29-1-3.33c-0.86-1.63-2.09-2.89-3.79-3.65c-1.54-0.69-3.14-0.8-4.76-0.33
			c-1.49,0.44-2.7,1.29-3.67,2.48c-1.41,1.73-2.04,3.75-2.07,5.96C585.86,279.21,585.91,279.76,586.01,280.3z M572.65,276.56
			c-0.61-2.66-2.01-4.73-4.51-5.96c-1.29-0.63-2.65-0.82-4.07-0.58c-1.93,0.32-3.47,1.32-4.64,2.86c-1.48,1.94-2.08,4.15-1.89,6.58
			c0.07,0.98,0.29,1.93,0.66,2.84c0.64,1.57,1.61,2.89,3.02,3.86c1.72,1.18,3.61,1.57,5.64,1.06c2.01-0.51,3.5-1.74,4.58-3.48
			c0.98-1.57,1.41-3.29,1.41-5.39C572.87,277.92,572.8,277.24,572.65,276.56z"/>
	</g>
	<g>
		<circle cx="416.79" cy="275.4" r="69.41"/>
		<g>
			<path class="st0" d="M382.83,301.85c0-16.31,0-32.62,0-48.93c0.5-3.8,1.99-7.31,3.16-10.92c0.45-1.4,0.71-1.55,2.2-1.55
				c20.48,0,40.96,0,61.44-0.02c0.87,0,1.11,0.21,1.1,1.09c-0.03,13.39-0.02,26.78-0.02,40.16c0,1.22-0.35,2.22-1.26,3.11
				c-5.46,5.41-10.88,10.84-16.3,16.3c-0.92,0.92-1.91,1.34-3.2,1.32c-2.91-0.04-5.82,0.04-8.73-0.03c-1.56-0.04-2.74,0.47-3.81,1.6
				c-1.73,1.83-3.55,3.58-5.34,5.36c-0.6,0.6-1.27,1.01-2.15,1c-3.37-0.03-6.75,0.07-10.12-0.05c-0.59-0.33-0.51-0.92-0.53-1.44
				c-0.05-1.47-0.01-2.94-0.03-4.42c-0.02-1.69-0.35-2.02-2.07-2.03c-4.14-0.02-8.29,0.01-12.43-0.02
				C384.08,302.4,383.34,302.49,382.83,301.85z M415.85,292.2c0.59-0.6,1.23-0.84,2.07-0.84c4.89,0.02,9.78-0.01,14.66,0.01
				c0.76,0,1.33-0.27,1.85-0.79c3.01-3.02,6.04-6.03,9.08-9.03c0.54-0.53,0.77-1.1,0.77-1.86c-0.02-10.6-0.02-21.19,0.01-31.79
				c0-0.82-0.23-1.04-1.04-1.04c-16.29,0.02-32.59,0.02-48.88,0c-0.83,0-1.03,0.26-1.03,1.06c0.02,14.13,0.02,28.25,0,42.38
				c0,0.85,0.19,1.13,1.09,1.12c4.27-0.05,8.54,0,12.8-0.04c0.83-0.01,1.04,0.25,1.03,1.05c-0.05,2.36-0.02,4.72-0.02,7.46
				C410.94,297.15,413.41,294.69,415.85,292.2z"/>
			<path class="st0" d="M410.36,269.04c0-2.79,0.02-5.59-0.02-8.38c-0.01-0.75,0.19-1.03,0.97-0.99c1.47,0.06,2.95,0.05,4.42,0
				c0.69-0.02,0.95,0.15,0.94,0.9c-0.03,5.7-0.02,11.41,0,17.11c0,0.64-0.16,0.89-0.84,0.87c-1.55-0.04-3.1-0.04-4.65,0
				c-0.7,0.02-0.83-0.28-0.83-0.89C410.37,274.78,410.36,271.91,410.36,269.04z"/>
			<path class="st0" d="M433.56,269.23c0,2.76-0.04,5.51,0.02,8.26c0.02,0.9-0.27,1.12-1.12,1.08c-1.39-0.07-2.79-0.05-4.19-0.01
				c-0.67,0.02-0.95-0.12-0.95-0.88c0.03-5.7,0.03-11.41,0-17.11c0-0.73,0.24-0.93,0.93-0.91c1.47,0.04,2.95,0.05,4.42,0
				c0.76-0.03,0.9,0.28,0.89,0.95C433.54,263.49,433.56,266.36,433.56,269.23z"/>
		</g>
	</g>
	<g>
		<circle cx="254.21" cy="275.4" r="69.41"/>
		<g>
			<path class="st0" d="M287.42,250.25c-0.38,0.25-0.65,0.37-0.85,0.57c-10.27,10.26-20.53,20.52-30.8,30.78
				c-1.12,1.12-1.99,1.12-3.12,0c-10.3-10.3-20.6-20.6-30.91-30.88c-0.53-0.53-0.36-0.66,0.22-0.84c0.83-0.27,1.67-0.37,2.53-0.37
				c19.84,0,39.68,0,59.52,0C285.08,249.49,286.12,249.65,287.42,250.25z"/>
			<path class="st0" d="M243.3,278.43c2.02,1.99,4.04,3.97,6.05,5.96c3.07,3.05,6.72,3.05,9.78-0.01c1.85-1.85,3.72-3.7,5.56-5.57
				c0.35-0.36,0.53-0.45,0.94-0.03c4.3,4.4,8.63,8.77,12.95,13.15c2.65,2.68,5.3,5.35,7.95,8.02c0.75,0.76,0.75,0.77-0.31,1.09
				c-0.6,0.18-1.21,0.27-1.84,0.27c-20.08,0-40.15,0-60.23,0c-0.81,0-1.59-0.15-2.36-0.41c-0.4-0.14-0.43-0.26-0.13-0.56
				c0.82-0.8,1.61-1.62,2.42-2.43c6.34-6.43,12.68-12.87,19.03-19.3C243.18,278.54,243.26,278.47,243.3,278.43z"/>
			<path class="st0" d="M217.27,275.34c0-6.26,0-12.52,0-18.77c0-1.05,0.2-2.06,0.6-3.03c0.15-0.35,0.3-0.42,0.58-0.11
				c0.38,0.42,0.8,0.81,1.21,1.22c6.74,6.74,13.47,13.49,20.21,20.22c0.41,0.41,0.48,0.62,0.03,1.08
				c-7.09,7.05-14.15,14.13-21.22,21.2c-0.59,0.59-0.61,0.59-0.92-0.21c-0.34-0.88-0.49-1.8-0.49-2.74
				C217.27,287.91,217.27,281.63,217.27,275.34z"/>
			<path class="st0" d="M290.27,253c0.57,1.09,0.86,2.01,0.86,3.01c0,12.93,0,25.86,0,38.79c0,0.92-0.24,1.78-0.69,2.65
				c-2.7-2.7-5.36-5.36-8.02-8.02c-3.23-3.23-6.45-6.47-9.68-9.71c-1.34-1.34-2.65-2.71-4.01-4.03c-0.4-0.39-0.41-0.65,0-0.98
				c0.1-0.08,0.18-0.18,0.28-0.27c6.9-6.91,13.79-13.82,20.69-20.73C289.89,253.52,290.03,253.3,290.27,253z"/>
		</g>
	</g>
	<g>
		<circle cx="91.63" cy="94.2" r="69.41"/>
		<path class="st0" d="M50.59,119.8c0,0,19.47,1.6,24.02-6.85c0,0-10.61-0.22-15.16-12.13c0,0,5.63,1.3,7.8,1.08
			c0,0-15.81-7.36-13.43-17.98c0,0,5.63,2.6,7.36,1.95c0,0-12.35-7.58-5.2-22.74c0,0,11.7,16.03,34.66,17.76
			c0,0-1.08-17.54,12.13-20.58c13.21-3.03,17.76,5.2,17.76,5.2s7.15-2.17,10.83-3.9c0,0-4.98,7.58-6.71,9.1c0,0,6.5-1.73,8.01-2.82
			c0,0-2.82,5.2-7.58,9.31c0,0,3.46,25.25-19.99,42.71S55.2,124.38,50.59,119.8z"/>
	</g>
	<g>
		<circle cx="254.21" cy="94.2" r="69.41"/>
		<path class="st0" d="M243.7,134.39V94.51h-8.04v-13.6h8.04V67.62c0,0,0.93-13.6,13.6-13.6c12.67,0,15.46,0,15.46,0v15.15h-8.35
			c0,0-4.92-0.17-4.92,4.92c0,5.09,0,6.7,0,6.7h13.26l-1.68,13.42h-11.37v40.18H243.7z"/>
	</g>
	<g>
		<circle cx="579.37" cy="94.2" r="69.41"/>
		<path class="st0" d="M601.66,79.16c-0.14,2.4-0.28,4.8-0.4,7.2c-0.06,1.14,0.26,1.4,1.43,1.25c0.96-0.12,1.89-0.39,2.75-0.81
			c1.67-0.81,3.25-0.53,4.73,0.43c1.87,1.21,2.02,3.24,0.43,4.78c-1.3,1.25-2.95,1.8-4.61,2.33c-1.02,0.33-2.03,0.7-2.94,1.27
			c-1.16,0.72-1.63,1.8-1.09,3.04c3.13,7.15,7.9,12.53,15.87,14.32c0.88,0.2,1.66,0.49,1.95,1.41c0.3,0.95-0.11,1.76-0.75,2.42
			c-1.34,1.38-3.14,1.9-4.92,2.4c-1.46,0.41-2.93,0.78-4.44,0.94c-0.51,0.06-0.8,0.28-0.91,0.8c-0.2,0.94-0.42,1.87-0.69,2.79
			c-0.38,1.32-0.96,1.78-2.34,1.69c-1.43-0.1-2.85-0.37-4.28-0.54c-3.7-0.44-7,0.43-9.97,2.76c-2.36,1.85-4.87,3.52-7.86,4.21
			c-5.17,1.2-9.98,0.36-14.34-2.73c-0.69-0.49-1.43-0.93-2.08-1.47c-3.8-3.14-8.15-3.32-12.7-2.35c-0.66,0.14-1.32,0.17-1.98,0.16
			c-0.87-0.01-1.49-0.44-1.75-1.27c-0.29-0.91-0.58-1.84-0.72-2.78c-0.14-0.89-0.56-1.2-1.44-1.33c-2.23-0.33-4.42-0.84-6.51-1.72
			c-0.93-0.39-1.8-0.88-2.5-1.62c-0.65-0.69-0.93-1.52-0.64-2.45c0.27-0.86,1-1.13,1.79-1.29c7.97-1.7,12.7-7.09,15.92-14.13
			c0.67-1.46,0.2-2.52-1.19-3.37c-1.11-0.68-2.36-1.03-3.59-1.43c-1.31-0.43-2.54-1.01-3.61-1.89c-1.74-1.44-1.64-3.75,0.25-4.95
			c1.34-0.84,2.76-1.21,4.3-0.43c0.89,0.45,1.87,0.7,2.86,0.83c1.55,0.2,1.87-0.16,1.76-1.71c-0.25-3.54-0.5-7.08-0.25-10.64
			c0.6-8.45,5.07-14.26,12.72-17.27c8.08-3.19,16.13-2.64,23.46,2.45c3.98,2.77,6.62,6.65,7.75,11.4
			C601.66,74.24,601.68,76.71,601.66,79.16z"/>
	</g>
	<g>
		<circle cx="416.79" cy="94.2" r="69.41"/>
		<g>
			<path class="st0" d="M459.85,94.26c0,6.21-0.03,12.42,0.01,18.62c0.03,5.86-1.69,11.11-5.4,15.64
				c-3.34,4.08-7.61,6.77-12.76,8.03c-1.91,0.47-3.84,0.69-5.79,0.69c-12.72,0-25.45,0.02-38.17-0.01
				c-7.46-0.02-13.66-2.9-18.47-8.58c-3.65-4.31-5.48-9.38-5.5-15.03c-0.04-12.96-0.13-25.91,0.03-38.87
				c0.1-8.75,4.09-15.51,11.51-20.17c3.77-2.36,7.95-3.42,12.39-3.42c12.72,0,25.45-0.02,38.17,0.01c7.46,0.02,13.67,2.9,18.47,8.58
				c3.66,4.33,5.47,9.42,5.5,15.1C459.88,81.32,459.85,87.79,459.85,94.26z M398,58.81c-2.47,0-4.89,0.35-7.11,1.45
				c-6.18,3.05-9.43,8.06-9.47,14.94c-0.08,12.67-0.03,25.35-0.02,38.02c0,2.37,0.37,4.69,1.41,6.84c3.04,6.22,8.06,9.49,14.97,9.53
				c12.68,0.08,25.35,0.03,38.03,0.02c2.4,0,4.74-0.38,6.9-1.44c6.23-3.08,9.44-8.14,9.48-15.08c0.06-12.58,0.02-25.16,0.01-37.74
				c0-1.2-0.06-2.41-0.31-3.58c-0.89-4.08-2.99-7.41-6.38-9.88c-2.93-2.14-6.24-3.08-9.84-3.07c-6.28,0-12.56,0-18.84,0
				C410.56,58.81,404.28,58.8,398,58.81z"/>
			<path class="st0" d="M439.93,76.73c-3.09,0-5.62-2.53-5.61-5.59c0.01-3.06,2.58-5.6,5.64-5.58c3.04,0.02,5.54,2.52,5.58,5.57
				C445.56,74.17,443,76.73,439.93,76.73z"/>
			<path class="st0" d="M394.63,94.21c0-12.22,9.99-22.2,22.21-22.17c12.2,0.02,22.14,9.97,22.14,22.17
				c0,12.22-9.99,22.2-22.21,22.17C404.57,116.36,394.63,106.4,394.63,94.21z M416.82,79.68c-7.99-0.02-14.51,6.47-14.55,14.49
				c-0.04,8.01,6.53,14.58,14.55,14.56c8.01-0.02,14.51-6.53,14.51-14.53C431.33,86.21,424.83,79.7,416.82,79.68z"/>
		</g>
	</g>
	<g>
		<circle cx="1063.63" cy="94.2" r="69.41"/>
		<g>
			<rect x="1072.59" y="73.64" class="st0" width="19.44" height="5.12"/>
			<path class="st0" d="M1083.01,110.2c6.18,0,6.75-4.62,6.75-4.62h8.78c0,0,0.57,11.42-15.52,11.42s-16.28-13.97-16.28-13.97v-6.98
				c0,0,0.94-14.34,16.32-14.34c15.38,0,16.23,14.72,16.23,14.72v5.19h-24.06C1075.23,105.29,1076.83,110.2,1083.01,110.2z
				 M1075.04,95.66h15.47c0,0-1.23-6.7-7.5-6.7S1075.04,95.66,1075.04,95.66z"/>
			<path class="st0" d="M1027.96,115.54V71.42h24.68c0,0,9.81,0.98,9.81,9.81c0,0,0.88,8.41-4.85,10.73c0,0,6.28,2.01,6.28,10.54
				s-6.28,13.05-10,13.05C1050.15,115.54,1027.96,115.54,1027.96,115.54z M1036.71,96.41v11.35h13.59c0,0,4.72,0.5,4.72-5.68
				c0-6.17-5.24-5.68-5.24-5.68H1036.71z M1036.76,78.77v10.18h12.19c0,0,4.24,0.45,4.24-5.09c0-5.54-4.7-5.09-4.7-5.09H1036.76z"/>
		</g>
	</g>
	<g>
		<circle cx="738.47" cy="94.2" r="69.41"/>
		<path class="st0" d="M734.12,104.64c-0.36,1.42-0.7,2.77-1.04,4.11c-0.52,2.02-1.04,4.03-1.55,6.05c-0.59,2.32-1.53,4.5-2.68,6.59
			c-1.29,2.37-2.79,4.6-4.45,6.73c-0.07,0.09-0.13,0.19-0.21,0.26c-0.16,0.16-0.35,0.23-0.58,0.16c-0.22-0.07-0.32-0.23-0.35-0.44
			c-0.11-0.8-0.23-1.6-0.31-2.4c-0.22-2.1-0.32-4.21-0.28-6.32c0.04-2.35,0.32-4.66,0.87-6.94c0.92-3.8,1.8-7.6,2.7-11.4
			c0.7-2.96,1.4-5.92,2.11-8.88c0.08-0.34,0.07-0.64-0.06-0.98c-0.61-1.49-0.92-3.06-1.04-4.66c-0.12-1.66,0.01-3.28,0.46-4.88
			c0.44-1.59,1.17-3.04,2.3-4.26c1.12-1.2,2.46-2,4.11-2.18c1.53-0.17,2.97,0.11,4.18,1.15c0.88,0.76,1.38,1.75,1.64,2.86
			c0.3,1.25,0.25,2.5,0.05,3.76c-0.35,2.13-1,4.18-1.63,6.24c-0.59,1.95-1.23,3.89-1.68,5.88c-0.52,2.28-0.02,4.29,1.71,5.9
			c1.41,1.32,3.14,1.8,5.05,1.68c2.32-0.15,4.23-1.16,5.88-2.74c1.78-1.71,2.99-3.8,3.92-6.06c0.98-2.39,1.57-4.87,1.9-7.43
			c0.22-1.72,0.34-3.44,0.3-5.17c-0.07-2.69-0.66-5.25-2.05-7.59c-1.69-2.86-4.16-4.79-7.26-5.93c-2.74-1.01-5.59-1.31-8.49-1.14
			c-2.3,0.13-4.52,0.58-6.64,1.47c-4.64,1.94-7.95,5.23-9.94,9.85c-0.87,2.02-1.34,4.14-1.48,6.34c-0.11,1.78,0.01,3.54,0.54,5.25
			c0.4,1.29,1.02,2.45,1.88,3.5c0.16,0.2,0.32,0.39,0.48,0.6c0.35,0.46,0.46,0.96,0.31,1.52c-0.3,1.14-0.57,2.28-0.87,3.41
			c-0.28,1.05-1.04,1.42-2.06,1c-1.76-0.74-3.24-1.85-4.44-3.33c-1.47-1.8-2.37-3.88-2.93-6.12c-0.59-2.34-0.77-4.73-0.59-7.13
			c0.28-3.69,1.43-7.12,3.35-10.28c2.94-4.85,7.08-8.31,12.3-10.49c2.64-1.11,5.4-1.78,8.24-2.12c2.29-0.27,4.58-0.35,6.88-0.14
			c5.76,0.52,10.9,2.51,15.2,6.45c3.57,3.26,5.87,7.27,6.85,12.01c0.35,1.72,0.42,3.45,0.38,5.2c-0.11,4.08-0.81,8.05-2.32,11.86
			c-1.33,3.35-3.19,6.35-5.83,8.83c-2.74,2.58-5.95,4.25-9.67,4.91c-1.57,0.28-3.15,0.42-4.74,0.24c-2.87-0.33-5.41-1.4-7.45-3.51
			C734.73,105.57,734.45,105.15,734.12,104.64z"/>
	</g>
	<g>
		<circle cx="901.05" cy="94.2" r="69.41"/>
		<path class="st0" d="M906.1,99.8c0,3.88,0,7.77,0,11.65c0,1.46,0.18,2.88,0.75,4.23c0.88,2.08,2.46,3.29,4.65,3.73
			c1.51,0.31,3.01,0.21,4.51-0.02c1.36-0.21,2.7-0.51,3.98-1.03c0.33-0.14,0.34-0.13,0.46,0.21c0.43,1.28,0.86,2.57,1.3,3.85
			c0.77,2.28,1.53,4.55,2.32,6.82c0.12,0.35,0.06,0.57-0.19,0.82c-0.82,0.82-1.8,1.37-2.83,1.85c-2.59,1.21-5.32,1.92-8.15,2.27
			c-3.04,0.38-6.08,0.26-9.08-0.33c-4.77-0.94-8.91-3.06-12.19-6.7c-2.53-2.8-4.16-6.07-5-9.74c-0.37-1.61-0.52-3.25-0.52-4.9
			c0.01-8.4,0-16.8,0-25.2c0-0.76,0.09-0.65-0.66-0.65c-2.29,0-4.57,0-6.86,0c-0.14,0-0.28,0-0.41,0c-0.15,0-0.21-0.08-0.21-0.22
			c0-0.1,0-0.21,0-0.31c0-3.11,0-6.22,0-9.33c0-0.6-0.07-0.48,0.47-0.69c2.17-0.85,4.21-1.94,6.05-3.37
			c2.71-2.1,4.79-4.71,6.33-7.76c1.37-2.7,2.24-5.56,2.72-8.55c0.08-0.51,0.15-1.02,0.22-1.53c0.09-0.71,0.24-0.85,0.95-0.85
			c3.64,0,7.29,0,10.93,0c0.55,0,0.5-0.06,0.5,0.49c0,6.44,0,12.89,0,19.33c0,0.71-0.11,0.62,0.63,0.62c4.97,0,9.94,0,14.9,0
			c0.59,0,0.55-0.09,0.55,0.55c0,3.69,0,7.39,0,11.08c0,0.05,0,0.1,0,0.15c-0.01,0.38-0.01,0.38-0.4,0.38c-2.1,0-4.19,0-6.29,0
			c-2.92,0-5.85,0-8.77,0c-0.12,0-0.24,0.01-0.36,0c-0.27-0.03-0.33,0.1-0.31,0.33c0.01,0.12,0,0.24,0,0.36
			C906.1,91.49,906.1,95.64,906.1,99.8z"/>
	</g>
	<g>
		<circle cx="577.63" cy="456.6" r="69.41"/>
		<path class="st0" d="M587.46,495.13c8.63-1.62,16.45-4.92,22.79-11.17c5.69-5.61,8.55-12.36,7.54-20.44
			c-0.15-1.23,0.12-1.81,1.07-2.5c2.48-1.8,4.13-4.21,4.4-7.33c0.36-4.11-1.91-8.2-5.34-9.96c-3.93-2.01-8.97-1.33-11.71,1.37
			c-0.33,0.33-0.55,0.24-0.87,0.03c-0.75-0.5-1.51-1-2.3-1.44c-6.28-3.56-13.03-5.51-20.22-5.95c-0.55-0.03-0.83-0.06-0.6-0.76
			c1.51-4.59,2.97-9.19,4.44-13.79c0.15-0.46,0.32-0.59,0.84-0.48c4.11,0.91,8.23,1.77,12.35,2.64c0.43,0.09,0.64,0.26,0.75,0.74
			c0.47,2.21,1.7,3.9,3.63,5.09c2.64,1.63,6.33,1.45,8.78-0.45c2.6-2.02,3.68-5.38,2.63-8.42c-0.97-2.81-3.08-4.34-5.9-4.91
			c-2.95-0.6-5.4,0.4-7.34,2.67c-0.33,0.38-0.59,0.57-1.13,0.45c-5-1.09-10-2.14-15-3.22c-2-0.43-2.89,0.08-3.5,2.02
			c-1.81,5.71-3.62,11.41-5.4,17.13c-0.17,0.53-0.39,0.71-0.93,0.71c-2.95,0.01-5.86,0.35-8.76,0.9c-6.23,1.2-12.04,3.44-17.28,7.06
			c-0.42,0.29-0.69,0.18-1.05-0.03c-1.66-0.96-3.32-1.91-5.24-2.32c-6.63-1.41-13.09,3.89-12.02,11.35
			c0.48,3.33,2.43,5.71,5.16,7.52c0.3,0.2,0.49,0.3,0.41,0.77c-1.03,5.91,0.06,11.42,3.27,16.48c3.78,5.97,9.24,9.95,15.57,12.77
			c6.73,3,13.85,4.25,21.28,4.32C580.95,495.93,584.23,495.74,587.46,495.13z M578.63,485.3c-6.28,0.01-11.16-1.32-15.5-4.42
			c-0.32-0.23-0.63-0.47-0.88-0.79c-0.83-1.09-0.9-2.24-0.17-3.01c1.04-1.1,2.3-1.28,3.48-0.47c4.06,2.76,8.54,4.09,13.45,3.76
			c3.86-0.26,7.4-1.5,10.59-3.69c1.32-0.9,2.73-0.69,3.74,0.56c0.58,0.72,0.51,1.75-0.25,2.73c-0.83,1.08-1.97,1.78-3.14,2.41
			C586.11,484.44,581.98,485.32,578.63,485.3z M591.75,455.2c3.47,0,6.3,2.9,6.28,6.42c-0.02,3.33-2.96,6.17-6.37,6.16
			c-3.46-0.01-6.23-2.89-6.22-6.48C585.44,458.01,588.34,455.2,591.75,455.2z M563.62,455.21c3.45,0.04,6.25,2.92,6.23,6.4
			c-0.02,3.26-2.98,6.21-6.21,6.18c-3.6-0.03-6.43-2.87-6.39-6.42C557.29,457.96,560.18,455.17,563.62,455.21z"/>
	</g>
	<g>
		<circle cx="736.73" cy="456.6" r="69.41"/>
		<path class="st0" d="M771.37,436.19c0-0.36-0.13-0.45-0.47-0.47c-0.72-0.03-1.45-0.06-2.16-0.17
			c-9.02-1.35-15.67-8.99-15.73-18.09c0-0.6-0.17-0.73-0.74-0.72c-3.61,0.03-7.22,0.01-10.83,0.02c-0.84,0-1.69,0.03-2.53,0.05
			c-0.21,0.18-0.1,0.42-0.1,0.63c-0.01,14.04-0.02,28.08-0.01,42.12c0,1.28-0.17,2.58,0.09,3.86c-0.03,0.12-0.09,0.24-0.09,0.35
			c0,2.29-0.05,4.59,0.03,6.88c0.18,5.16-3.26,9.88-8.3,11.25c-5.05,1.38-10.51-0.95-12.88-5.58c-2.19-4.3-1.72-8.41,1.07-12.3
			c0.19-0.08,0.25-0.27,0.33-0.43c0.2-0.1,0.33-0.26,0.42-0.46v0c0.2-0.1,0.39-0.22,0.48-0.44c0,0,0,0,0,0c0,0,0,0,0,0
			c3.18-2.7,6.8-3.55,10.84-2.49c0.03-0.09,0.06-0.14,0.06-0.18c0-4.58,0-9.17,0.01-13.75c0-0.39-0.13-0.5-0.51-0.54
			c-2.59-0.27-5.17-0.17-7.73,0.33c-13.44,2.64-22.47,15.68-20.17,29.14c2.28,13.31,14.21,22.57,27.68,21.08
			c10.73-1.18,17.91-7.21,21.61-17.33c1.79-4.9,1.23-10.03,1.22-15.09c0,0,0,0,0,0h0c0-0.05-0.01-0.1-0.01-0.15
			c0.08-0.9,0.05-1.79,0.01-2.69c0.03-0.36,0.16-0.72,0.02-1.09c0,0,0,0,0,0c0-5.7,0-11.4,0-17.26c0.25,0.19,0.33,0.25,0.4,0.31
			c5.07,4.03,10.91,5.93,17.32,6.22c0.33,0.01,0.68,0.13,0.68-0.46C771.35,444.56,771.35,440.38,771.37,436.19z"/>
	</g>
	<g>
		<circle cx="1061.89" cy="456.6" r="69.41"/>
		<path class="st0" d="M1098.84,456.65c0,9.97,0.01,19.95-0.01,29.92c0,2.85-1.25,4.99-3.83,6.3c-1.01,0.51-2.1,0.67-3.23,0.67
			c-13.63,0-27.26,0-40.89,0c-6.34,0-12.68,0.02-19.02-0.01c-2.82-0.01-4.95-1.25-6.25-3.8c-0.48-0.94-0.68-1.94-0.68-2.98
			c-0.01-20.11-0.01-40.21,0-60.32c0-3.21,2.01-5.76,5.13-6.58c0.58-0.15,1.19-0.2,1.8-0.2c20.01,0,40.02,0,60.03,0
			c3.32,0,5.87,1.94,6.72,5.11c0.17,0.64,0.21,1.31,0.21,1.98C1098.84,436.71,1098.84,446.68,1098.84,456.65z M1065.48,448.88
			c-0.02-1.34-0.77-2.09-2.11-2.09c-2.64,0-5.29,0-7.93,0c-1.43,0-2.15,0.72-2.15,2.17c0,11.42,0,22.85,0,34.27
			c0,1.47,0.71,2.17,2.2,2.17c2.56,0,5.13,0,7.69,0c1.63,0,2.31-0.69,2.31-2.32c0-5.75,0.01-11.5-0.01-17.26
			c-0.01-1.55,0.24-3.04,0.75-4.51c1.01-2.94,3.12-4.59,5.97-4.61c2.9-0.03,4.77,1.28,5.76,3.98c0.51,1.41,0.66,2.87,0.67,4.34
			c0.02,6.12,0.01,12.23,0.01,18.35c0,1.25,0.72,2.02,1.97,2.03c2.85,0.01,5.69,0.02,8.54,0c1.21-0.01,1.95-0.76,1.95-1.98
			c0.01-1.98,0.02-3.96,0-5.93c-0.05-5.33,0.15-10.66-0.15-15.98c-0.14-2.53-0.54-5.01-1.46-7.38c-1.42-3.66-3.91-6.22-7.76-7.29
			c-2.87-0.8-5.78-0.79-8.69-0.24c-1.97,0.37-3.76,1.15-5.31,2.46c-0.82,0.69-1.48,1.52-2.23,2.5
			C1065.48,450.55,1065.49,449.71,1065.48,448.88z M1047.81,463.44c0-4.8,0-9.61,0-14.41c0-1.48-0.77-2.23-2.25-2.23
			c-2.6,0-5.21-0.01-7.81,0c-1.3,0-2.11,0.83-2.12,2.13c-0.01,1.09,0,2.18,0,3.27c0,10.32,0,20.63,0,30.95
			c0,1.4,0.74,2.24,2.05,2.26c2.71,0.03,5.41,0.01,8.12,0c0.73,0,1.33-0.29,1.73-0.93c0.28-0.45,0.3-0.95,0.3-1.46
			c0-5.63,0-11.26,0-16.9C1047.81,465.21,1047.81,464.32,1047.81,463.44z M1041.7,443.51c4.36,0.01,7.93-3.56,7.89-7.89
			c-0.04-4.34-3.58-7.85-7.89-7.83c-4.35,0.02-7.82,3.52-7.82,7.87C1033.87,440.02,1037.35,443.5,1041.7,443.51z"/>
	</g>
	<g>
		<circle cx="899.31" cy="456.6" r="69.41"/>
		<g>
			<path class="st0" d="M859.01,498.41c1.78-6.34,3.35-12.2,5.09-18c0.57-1.89,0.47-3.41-0.48-5.21
				c-8.05-15.25-7.04-30.13,3.27-43.78c9.9-13.11,23.57-18.99,39.85-15.78c17.26,3.4,28.52,14.3,32.54,31.45
				c5.85,24.94-13.84,49.43-39.44,49.7c-5.33,0.06-10.57-0.83-15.46-3.1c-2.28-1.06-4.34-1.26-6.86-0.45
				C871.64,495.13,865.61,496.6,859.01,498.41z M878.29,486.76c2.25-0.78,4.18-0.75,6.52,0.35c6.86,3.2,14.12,3.81,21.61,2.43
				c17.37-3.2,29.81-19.33,27.17-38.61c-2.72-19.82-19.59-31.8-38.58-29.33c-27.47,3.57-37.02,32.7-24.84,52.74
				c0.98,1.61,1.4,2.87,0.71,4.76c-1.24,3.43-2.08,7-3.29,11.22C871.58,488.99,874.95,487.92,878.29,486.76z"/>
			<path class="st0" d="M909.59,475.69c-9.31-1.15-16.82-5.67-22.95-12.63c-3.88-4.4-7.87-8.77-8.53-15.04
				c-0.42-3.98,0.9-7.26,3.82-9.89c2.58-2.32,5.45-1.71,6.93,1.41c0.74,1.55,1.25,3.22,2.06,4.73c1.3,2.44,1.16,4.67-0.88,6.54
				c-1.78,1.64-1.28,3.09-0.18,4.82c2.89,4.52,6.96,7.57,11.63,10c2.35,1.22,4.04,0.68,5.07-1.56c1.52-3.31,3.67-3.6,6.55-1.84
				c0.97,0.59,2.07,0.98,3.1,1.5c4.25,2.16,4.7,6.01,1.03,9.18C915.06,474.78,912.6,475.89,909.59,475.69z"/>
		</g>
	</g>
	<g>
		<circle cx="415.05" cy="456.6" r="69.41"/>
		<path class="st0" d="M445.59,420.92c1.43,0.64,3.04,0.69,4.43,1.48c4.37,2.52,5.56,6.67,5.94,11.28
			c0.52,6.39-1.33,12.24-4.31,17.73c-7.13,13.15-15.85,25.11-27.31,34.87c-3.26,2.78-6.92,4.9-11.26,5.77
			c-4.09,0.82-7.08-0.76-9.51-3.79c-3.22-4.01-4.87-8.74-6.2-13.64c-2.29-8.45-4.32-16.98-7.12-25.28
			c-0.78-2.31-1.73-4.55-3.31-6.44c-1.57-1.88-2.72-2.06-4.78-0.81c-1.22,0.74-2.4,1.53-3.56,2.36c-0.7,0.5-1.16,0.59-1.72-0.23
			c-0.94-1.37-2.73-2.61-2.81-3.98c-0.09-1.45,2.06-2.35,3.28-3.43c4.75-4.23,9.26-8.75,14.58-12.29c1.93-1.28,3.93-2.47,6.33-2.61
			c4.86-0.29,8.37,2.39,10.15,7.74c1.37,4.13,1.78,8.45,2.53,12.71c1.18,6.76,2.14,13.58,4.65,20.03c1.89,4.88,4.08,5.3,7.36,1.3
			c3.59-4.38,6.54-9.17,8.6-14.47c0.69-1.79,1-3.66,0.84-5.58c-0.23-2.77-1.94-4.39-4.73-4.57c-2.28-0.14-4.45,0.35-6.63,1.14
			c1.75-8.04,8.13-17.35,16.98-18.68c0.5-0.07,1.22,0.06,1.54-0.61c0.36,0,0.71,0,1.07,0c1.55,0.3,3.1,0.3,4.64,0
			C445.35,420.92,445.47,420.92,445.59,420.92z"/>
	</g>
	<g>
		<circle cx="91.63" cy="456.6" r="69.41"/>
		<g>
			<path class="st0" d="M127.64,486.21c-4.46,2.67-9.17,4.76-14.12,6.34c-5.21,1.65-10.54,2.71-15.98,3.2
				c-4.18,0.38-8.36,0.34-12.54-0.02c-4.57-0.4-9.06-1.19-13.47-2.44c-6.52-1.85-12.66-4.56-18.38-8.23
				c-3.02-1.93-5.89-4.06-8.59-6.41c-0.16-0.14-0.32-0.28-0.44-0.45c-0.24-0.32-0.46-0.66-0.2-1.07c0.26-0.4,0.66-0.38,1.05-0.3
				c0.23,0.05,0.46,0.15,0.67,0.27c3.96,2.24,8.08,4.13,12.33,5.76c6.69,2.55,13.58,4.33,20.66,5.35c7.21,1.04,14.44,1.32,21.7,0.69
				c7.22-0.63,14.29-2.03,21.17-4.31c1.83-0.6,3.65-1.23,5.43-1.96c0.89-0.31,1.68-0.88,2.7-0.84c0.69,0.03,1.04,0.42,1.33,0.91
				c0.29,0.49-0.01,0.95-0.31,1.32C129.85,484.99,128.72,485.57,127.64,486.21z"/>
			<path class="st0" d="M132.7,474.98c1.78-0.01,3.54,0.11,5.26,0.63c1.05,0.32,1.42,0.97,1.47,1.98c0.09,1.8-0.26,3.55-0.77,5.24
				c-0.99,3.26-2.47,6.26-5.04,8.61c-0.11,0.1-0.21,0.22-0.32,0.31c-0.39,0.33-0.85,0.59-1.3,0.27c-0.46-0.33-0.22-0.82-0.05-1.23
				c0.92-2.25,1.83-4.51,2.46-6.87c0.27-1.02,0.48-2.05,0.48-3.11c0-0.95-0.44-1.52-1.34-1.79c-1.89-0.56-3.82-0.42-5.74-0.31
				c-1.71,0.1-3.41,0.3-5.12,0.46c-0.45,0.04-0.98,0.15-1.14-0.42c-0.14-0.51,0.28-0.83,0.66-1.07c2.84-1.81,6-2.55,9.33-2.69
				C131.91,474.97,132.31,474.98,132.7,474.98z"/>
			<path class="st0" d="M127.64,486.21c0.6-0.64,1.43-0.96,2.12-1.48c0.98-0.74,1.37-1.51,1.01-2.15c-0.4-0.71-1.28-0.86-2.4-0.46
				c-0.47,0.17-0.9,0.49-1.43,0.48c0.81-0.59,1.69-0.98,2.73-0.93c1.25,0.06,1.93,1.16,1.24,2.17
				C130.12,485.01,128.98,485.77,127.64,486.21z"/>
			<path class="st0" d="M114.19,444.62c0,4.42,0.04,8.13-0.01,11.83c-0.04,3.08,0.88,5.8,2.77,8.21c0.5,0.64,1.01,1.28,1.44,1.96
				c0.67,1.08,0.53,1.88-0.43,2.7c-2.57,2.18-5.14,4.36-7.72,6.53c-1.16,0.98-2.2,0.94-3.4-0.02c-2.05-1.64-3.67-3.64-5.08-5.82
				c-0.35-0.54-0.54-0.59-1.03-0.11c-2.72,2.64-5.64,5.03-9.38,6.06c-4.64,1.28-9.34,1.52-13.96-0.05c-5-1.7-8.03-5.29-9.18-10.39
				c-1.18-5.18-0.7-10.19,2.15-14.79c2.41-3.88,5.99-6.26,10.23-7.73c4.33-1.5,8.84-2.01,13.36-2.5c1.53-0.17,3.05-0.31,4.58-0.46
				c0.34-0.03,0.64-0.04,0.63-0.54c-0.04-1.71,0.1-3.44-0.14-5.14c-0.47-3.44-2.3-5.32-5.75-5.87c-2.16-0.35-4.26-0.04-6.21,1.02
				c-1.96,1.06-3.18,2.71-3.73,4.87c-0.47,1.86-1.07,2.28-2.93,2.08c-2.99-0.32-5.99-0.64-8.98-0.96c-1.66-0.18-2.25-1.01-1.9-2.66
				c1.41-6.53,5.33-11,11.49-13.35c7.54-2.87,15.23-3.1,22.87-0.33c6.42,2.33,9.78,7.02,10.18,13.83
				C114.31,437.09,114.13,441.22,114.19,444.62z M99.17,449.13c0.03-0.64-0.19-0.83-0.82-0.8c-2.16,0.11-4.32,0.24-6.45,0.69
				c-6.25,1.33-9.36,5.52-8.51,11.52c0.56,3.98,3.49,6.31,7.4,5.77c2.75-0.38,4.69-2.05,6.14-4.32c1.9-2.96,2.26-6.29,2.22-9.7
				C99.16,451.23,99.12,450.18,99.17,449.13z"/>
		</g>
	</g>
	<g>
		<circle cx="252.47" cy="456.6" r="69.41"/>
		<g>
			<path class="st0" d="M217.85,468.74c-5.22,0.13-10.43,0.08-15.65,0.36c-0.43,0.02-0.86,0.02-1.29,0
				c-0.55-0.02-1.03-0.19-1.1-0.83c-0.07-0.64,0.37-0.94,0.91-1.02c1.2-0.17,2.41-0.28,3.62-0.41c1.44-0.16,1.7-0.39,1.7-1.83
				c0.01-10.67,0.2-21.34-0.09-32c-0.06-2.08-0.28-2.29-2.39-2.44c-0.82-0.06-1.64-0.1-2.46-0.18c-0.62-0.06-1.07-0.37-0.99-1.06
				c0.08-0.68,0.57-0.89,1.19-0.83c3.05,0.32,6.11,0.17,9.17,0.2c5.45,0.05,10.9,0.03,16.36,0.04c1.8,0,3.6,0.04,5.4,0.02
				c1-0.01,1.4,0.5,1.25,1.39c-0.38,2.31-0.25,4.61-0.1,6.92c0.03,0.41,0.18,0.91-0.45,1.04c-0.58,0.12-0.88-0.23-1.06-0.71
				c-0.67-1.76-1.41-3.48-2.3-5.15c-0.59-1.1-1.37-1.51-2.62-1.56c-4.51-0.2-9.02,0.1-13.53,0.07c-1.13-0.01-1.61,0.48-1.72,1.58
				c-0.12,1.25-0.15,2.5-0.14,3.76c0.04,3.29,0.09,6.59,0.11,9.88c0,0.6,0.07,0.89,0.8,0.93c4.16,0.24,8.31-0.08,12.47-0.05
				c1.58,0.01,1.92-0.4,2.2-2.01c0.14-0.81,0.23-1.63,0.39-2.44c0.07-0.38,0.19-0.76,0.37-1.1c0.23-0.45,0.59-0.72,1.15-0.59
				c0.63,0.15,0.64,0.63,0.58,1.11c-0.22,1.88-0.19,3.76-0.21,5.64c-0.03,2.32,0.02,4.63,0.24,6.94c0.04,0.39,0.03,0.78,0.03,1.17
				c0,0.4-0.2,0.68-0.58,0.78c-0.45,0.12-0.66-0.2-0.77-0.54c-0.28-0.81-0.57-1.63-0.76-2.47c-0.97-4.09-1.53-4.5-5.68-4.41
				c-3.06,0.07-6.12,0.1-9.18,0.09c-0.86,0-1.16,0.28-1.16,1.16c0.04,4.59,0.02,9.18,0.03,13.77c0,0.43,0.08,0.86,0.09,1.29
				c0.01,1.02,0.59,1.56,1.54,1.56c5.02-0.01,10.04,0.39,15.05-0.18c2.1-0.24,3.74-1.31,4.83-3.18c0.77-1.32,1.44-2.69,2.07-4.09
				c0.21-0.46,0.41-0.93,0.81-1.28c0.38-0.33,0.79-0.35,1.2-0.12c0.41,0.23,0.27,0.62,0.17,0.95c-0.89,2.71-1.18,5.51-1.3,8.34
				c-0.04,0.99-0.42,1.53-1.59,1.52C228.91,468.71,223.38,468.74,217.85,468.74z"/>
			<path class="st0" d="M292.92,464.77c1.96-5.53,4.3-10.81,5.39-16.5c0.28-1.45,0.03-1.8-1.36-2.22c-0.71-0.21-1.43-0.42-2.14-0.64
				c-0.45-0.14-0.82-0.41-0.77-0.9c0.06-0.51,0.51-0.66,0.96-0.66c3.06,0.02,6.11,0.05,9.17,0.09c0.53,0.01,0.96,0.25,0.95,0.81
				c-0.01,0.51-0.33,0.85-0.9,0.89c-2.09,0.13-3.14,1.22-3.86,3.26c-3.3,9.47-6.77,18.88-10.24,28.29c-0.81,2.2-1.64,4.43-3.42,6.1
				c-1.07,1.01-2.35,1.57-3.85,1.39c-1.56-0.18-2.49-1.43-2.22-2.89c0.27-1.47,1.39-2.19,2.96-1.9c2.84,0.51,2.84,0.51,4.18-2.01
				c0.15-0.28,0.29-0.56,0.43-0.83c1.94-3.62,2.44-7.13,0.72-11.19c-2.47-5.83-4.34-11.92-6.35-17.94
				c-0.46-1.39-1.39-1.86-2.57-2.25c-0.33-0.11-0.69-0.18-0.99-0.34c-0.33-0.18-0.48-0.51-0.37-0.9c0.1-0.36,0.36-0.51,0.7-0.52
				c0.78-0.03,1.57-0.05,2.35-0.04c2.78,0.04,5.56,0.07,8.34,0.14c0.55,0.01,1.31-0.07,1.3,0.82c-0.01,0.84-0.75,0.77-1.3,0.87
				c-0.85,0.16-1.7,0.28-2.55,0.42c-0.64,0.11-0.85,0.46-0.65,1.09c1.85,5.78,3.57,11.61,5.71,17.29
				C292.6,464.54,292.68,464.57,292.92,464.77z"/>
			<path class="st0" d="M274.84,447.37c0,0.51,0.04,1.02-0.01,1.53c-0.05,0.48,0.42,1.15-0.39,1.38c-0.8,0.23-1.15-0.21-1.45-0.94
				c-0.88-2.11-2.3-3.75-4.54-4.47c-1.49-0.48-2.9-0.26-3.98,0.97c-1.08,1.24-1.22,2.68-0.6,4.18c0.36,0.87,1.1,1.4,1.89,1.87
				c1.52,0.91,3.18,1.52,4.77,2.29c2.65,1.28,4.75,3.05,5.48,6.05c1.06,4.31-1.45,8.24-6.05,9.34c-3.13,0.75-6.15,0.18-9.08-1.01
				c-0.46-0.19-0.78-0.5-0.83-1.04c-0.16-1.95-0.35-3.9-0.51-5.86c-0.04-0.52-0.04-1.04,0.65-1.19c0.72-0.16,0.84,0.36,1.02,0.84
				c0.68,1.76,1.35,3.51,2.8,4.83c0.98,0.9,2.08,1.53,3.39,1.78c2,0.39,3.57-0.39,4.72-1.94c1.14-1.53,0.71-3.14-0.15-4.64
				c-1.03-1.81-2.83-2.65-4.62-3.48c-1.56-0.72-3.19-1.29-4.64-2.25c-2.45-1.61-3.47-3.88-3.12-6.75c0.33-2.65,1.88-4.44,4.3-5.44
				c3.31-1.37,6.6-0.94,9.84,0.32c0.59,0.23,0.84,0.64,0.86,1.26c0.03,0.78,0.1,1.56,0.15,2.35
				C274.78,447.37,274.81,447.37,274.84,447.37z"/>
			<path class="st0" d="M243.97,456.24c0-2.59-0.03-5.18,0.02-7.76c0.01-0.83-0.26-1.13-1.08-1.04c-0.58,0.07-1.18,0.03-1.76,0.06
				c-0.48,0.02-0.87-0.12-1.01-0.61c-0.13-0.47,0.1-0.84,0.46-1.13c0.09-0.07,0.19-0.14,0.3-0.18c3.04-1.25,4.68-3.68,5.61-6.7
				c0.09-0.3,0.25-0.58,0.36-0.87c0.21-0.58,0.7-0.39,1.1-0.39c0.53-0.01,0.48,0.41,0.49,0.76c0.01,1.69,0.07,3.37,0.01,5.06
				c-0.03,0.81,0.25,1.04,1,0.99c2.07-0.14,4.15-0.19,6.23-0.2c0.89-0.01,1.04,0.47,0.93,1.09c-0.11,0.66,0.38,1.72-0.94,1.75
				c-2.08,0.06-4.16,0.16-6.23,0.16c-0.89,0-1.19,0.35-1.19,1.17c0.01,4.98-0.06,9.96,0.04,14.94c0.06,2.97,1.36,3.87,4.29,3.32
				c0.97-0.18,1.91-0.42,2.72-1.04c0.45-0.35,0.98-0.4,1.35,0.09c0.37,0.49,0.11,0.93-0.27,1.35c-2.05,2.18-6.79,3.21-9.54,1.98
				c-1.65-0.73-2.67-1.98-2.85-3.86C243.71,462.2,243.88,459.22,243.97,456.24z"/>
		</g>
	</g>
</g>
</svg>
