<?xml version="1.0" encoding="UTF-8" standalone="no"?>
<!-- Generator: Adobe Illustrator 25.1.0, SVG Export Plug-In . SVG Version: 6.00 Build 0)  -->

<svg
   version="1.1"
   id="Layer_1"
   x="0px"
   y="0px"
   viewBox="0 0 141.00001 140.99999"
   xml:space="preserve"
   sodipodi:docname="Amazon_Black_circle_v2.svg"
   inkscape:version="1.1.2 (b8e25be833, 2022-02-05)"
   width="141"
   height="141"
   xmlns:inkscape="http://www.inkscape.org/namespaces/inkscape"
   xmlns:sodipodi="http://sodipodi.sourceforge.net/DTD/sodipodi-0.dtd"
   xmlns="http://www.w3.org/2000/svg"
   xmlns:svg="http://www.w3.org/2000/svg"><defs
   id="defs433" /><sodipodi:namedview
   id="namedview431"
   pagecolor="#505050"
   bordercolor="#eeeeee"
   borderopacity="1"
   inkscape:pageshadow="0"
   inkscape:pageopacity="0"
   inkscape:pagecheckerboard="0"
   showgrid="false"
   inkscape:zoom="0.732933"
   inkscape:cx="52.528676"
   inkscape:cy="230.58042"
   inkscape:window-width="1920"
   inkscape:window-height="1017"
   inkscape:window-x="-8"
   inkscape:window-y="-8"
   inkscape:window-maximized="1"
   inkscape:current-layer="Layer_1"
   width="300px" />
<style
   type="text/css"
   id="style222">
	.st0{fill:#FFFFFF;}
</style>

<g
   id="g2010"
   transform="translate(-22.219994,-387.19)"><circle
     cx="91.629997"
     cy="456.60001"
     r="69.410004"
     id="circle1998" /><g
     id="g2008"><path
       class="st0"
       d="m 127.64,486.21 c -4.46,2.67 -9.17,4.76 -14.12,6.34 -5.21,1.65 -10.54,2.71 -15.98,3.2 -4.18,0.38 -8.36,0.34 -12.54,-0.02 -4.57,-0.4 -9.06,-1.19 -13.47,-2.44 -6.52,-1.85 -12.66,-4.56 -18.38,-8.23 -3.02,-1.93 -5.89,-4.06 -8.59,-6.41 -0.16,-0.14 -0.32,-0.28 -0.44,-0.45 -0.24,-0.32 -0.46,-0.66 -0.2,-1.07 0.26,-0.4 0.66,-0.38 1.05,-0.3 0.23,0.05 0.46,0.15 0.67,0.27 3.96,2.24 8.08,4.13 12.33,5.76 6.69,2.55 13.58,4.33 20.66,5.35 7.21,1.04 14.44,1.32 21.7,0.69 7.22,-0.63 14.29,-2.03 21.17,-4.31 1.83,-0.6 3.65,-1.23 5.43,-1.96 0.89,-0.31 1.68,-0.88 2.7,-0.84 0.69,0.03 1.04,0.42 1.33,0.91 0.29,0.49 -0.01,0.95 -0.31,1.32 -0.8,0.97 -1.93,1.55 -3.01,2.19 z"
       id="path2000" /><path
       class="st0"
       d="m 132.7,474.98 c 1.78,-0.01 3.54,0.11 5.26,0.63 1.05,0.32 1.42,0.97 1.47,1.98 0.09,1.8 -0.26,3.55 -0.77,5.24 -0.99,3.26 -2.47,6.26 -5.04,8.61 -0.11,0.1 -0.21,0.22 -0.32,0.31 -0.39,0.33 -0.85,0.59 -1.3,0.27 -0.46,-0.33 -0.22,-0.82 -0.05,-1.23 0.92,-2.25 1.83,-4.51 2.46,-6.87 0.27,-1.02 0.48,-2.05 0.48,-3.11 0,-0.95 -0.44,-1.52 -1.34,-1.79 -1.89,-0.56 -3.82,-0.42 -5.74,-0.31 -1.71,0.1 -3.41,0.3 -5.12,0.46 -0.45,0.04 -0.98,0.15 -1.14,-0.42 -0.14,-0.51 0.28,-0.83 0.66,-1.07 2.84,-1.81 6,-2.55 9.33,-2.69 0.37,-0.02 0.77,-0.01 1.16,-0.01 z"
       id="path2002" /><path
       class="st0"
       d="m 127.64,486.21 c 0.6,-0.64 1.43,-0.96 2.12,-1.48 0.98,-0.74 1.37,-1.51 1.01,-2.15 -0.4,-0.71 -1.28,-0.86 -2.4,-0.46 -0.47,0.17 -0.9,0.49 -1.43,0.48 0.81,-0.59 1.69,-0.98 2.73,-0.93 1.25,0.06 1.93,1.16 1.24,2.17 -0.79,1.17 -1.93,1.93 -3.27,2.37 z"
       id="path2004" /><path
       class="st0"
       d="m 114.19,444.62 c 0,4.42 0.04,8.13 -0.01,11.83 -0.04,3.08 0.88,5.8 2.77,8.21 0.5,0.64 1.01,1.28 1.44,1.96 0.67,1.08 0.53,1.88 -0.43,2.7 -2.57,2.18 -5.14,4.36 -7.72,6.53 -1.16,0.98 -2.2,0.94 -3.4,-0.02 -2.05,-1.64 -3.67,-3.64 -5.08,-5.82 -0.35,-0.54 -0.54,-0.59 -1.03,-0.11 -2.72,2.64 -5.64,5.03 -9.38,6.06 -4.64,1.28 -9.34,1.52 -13.96,-0.05 -5,-1.7 -8.03,-5.29 -9.18,-10.39 -1.18,-5.18 -0.7,-10.19 2.15,-14.79 2.41,-3.88 5.99,-6.26 10.23,-7.73 4.33,-1.5 8.84,-2.01 13.36,-2.5 1.53,-0.17 3.05,-0.31 4.58,-0.46 0.34,-0.03 0.64,-0.04 0.63,-0.54 -0.04,-1.71 0.1,-3.44 -0.14,-5.14 -0.47,-3.44 -2.3,-5.32 -5.75,-5.87 -2.16,-0.35 -4.26,-0.04 -6.21,1.02 -1.96,1.06 -3.18,2.71 -3.73,4.87 -0.47,1.86 -1.07,2.28 -2.93,2.08 -2.99,-0.32 -5.99,-0.64 -8.98,-0.96 -1.66,-0.18 -2.25,-1.01 -1.9,-2.66 1.41,-6.53 5.33,-11 11.49,-13.35 7.54,-2.87 15.23,-3.1 22.87,-0.33 6.42,2.33 9.78,7.02 10.18,13.83 0.25,4.1 0.07,8.23 0.13,11.63 z m -15.02,4.51 c 0.03,-0.64 -0.19,-0.83 -0.82,-0.8 -2.16,0.11 -4.32,0.24 -6.45,0.69 -6.25,1.33 -9.36,5.52 -8.51,11.52 0.56,3.98 3.49,6.31 7.4,5.77 2.75,-0.38 4.69,-2.05 6.14,-4.32 1.9,-2.96 2.26,-6.29 2.22,-9.7 0.01,-1.06 -0.03,-2.11 0.02,-3.16 z"
       id="path2006" /></g></g></svg>
