<?xml version="1.0" encoding="UTF-8" standalone="no"?>
<!-- Generator: Adobe Illustrator 25.1.0, SVG Export Plug-In . SVG Version: 6.00 Build 0)  -->

<svg
   version="1.1"
   id="Layer_1"
   x="0px"
   y="0px"
   viewBox="0 0 141.00001 140.99999"
   xml:space="preserve"
   sodipodi:docname="Behance_Black_circle_v2.svg"
   inkscape:version="1.1.2 (b8e25be833, 2022-02-05)"
   width="141"
   height="141"
   xmlns:inkscape="http://www.inkscape.org/namespaces/inkscape"
   xmlns:sodipodi="http://sodipodi.sourceforge.net/DTD/sodipodi-0.dtd"
   xmlns="http://www.w3.org/2000/svg"
   xmlns:svg="http://www.w3.org/2000/svg"><defs
   id="defs433" /><sodipodi:namedview
   id="namedview431"
   pagecolor="#505050"
   bordercolor="#eeeeee"
   borderopacity="1"
   inkscape:pageshadow="0"
   inkscape:pageopacity="0"
   inkscape:pagecheckerboard="0"
   showgrid="false"
   inkscape:zoom="0.732933"
   inkscape:cx="52.528676"
   inkscape:cy="230.58042"
   inkscape:window-width="1920"
   inkscape:window-height="1017"
   inkscape:window-x="-8"
   inkscape:window-y="-8"
   inkscape:window-maximized="1"
   inkscape:current-layer="Layer_1"
   width="300px" />
<style
   type="text/css"
   id="style222">
	.st0{fill:#FFFFFF;}
</style>

<g
   id="g1950"
   transform="translate(-994.21995,-24.789993)"><circle
     cx="1063.63"
     cy="94.199997"
     r="69.410004"
     id="circle1940" /><g
     id="g1948"><rect
       x="1072.59"
       y="73.639999"
       class="st0"
       width="19.440001"
       height="5.1199999"
       id="rect1942" /><path
       class="st0"
       d="m 1083.01,110.2 c 6.18,0 6.75,-4.62 6.75,-4.62 h 8.78 c 0,0 0.57,11.42 -15.52,11.42 -16.09,0 -16.28,-13.97 -16.28,-13.97 v -6.98 c 0,0 0.94,-14.34 16.32,-14.34 15.38,0 16.23,14.72 16.23,14.72 v 5.19 h -24.06 c 0,3.67 1.6,8.58 7.78,8.58 z m -7.97,-14.54 h 15.47 c 0,0 -1.23,-6.7 -7.5,-6.7 -6.27,0 -7.97,6.7 -7.97,6.7 z"
       id="path1944" /><path
       class="st0"
       d="M 1027.96,115.54 V 71.42 h 24.68 c 0,0 9.81,0.98 9.81,9.81 0,0 0.88,8.41 -4.85,10.73 0,0 6.28,2.01 6.28,10.54 0,8.53 -6.28,13.05 -10,13.05 -3.73,-0.01 -25.92,-0.01 -25.92,-0.01 z m 8.75,-19.13 v 11.35 h 13.59 c 0,0 4.72,0.5 4.72,-5.68 0,-6.17 -5.24,-5.68 -5.24,-5.68 h -13.07 z m 0.05,-17.64 v 10.18 h 12.19 c 0,0 4.24,0.45 4.24,-5.09 0,-5.54 -4.7,-5.09 -4.7,-5.09 z"
       id="path1946" /></g></g></svg>
