<?xml version="1.0" encoding="UTF-8" standalone="no"?>
<!-- Generator: Adobe Illustrator 25.1.0, SVG Export Plug-In . SVG Version: 6.00 Build 0)  -->

<svg
   version="1.1"
   id="Layer_1"
   x="0px"
   y="0px"
   viewBox="0 0 141.00001 140.99999"
   xml:space="preserve"
   sodipodi:docname="Discord_Black_circle_v2.svg"
   inkscape:version="1.1.2 (b8e25be833, 2022-02-05)"
   width="141"
   height="141"
   xmlns:inkscape="http://www.inkscape.org/namespaces/inkscape"
   xmlns:sodipodi="http://sodipodi.sourceforge.net/DTD/sodipodi-0.dtd"
   xmlns="http://www.w3.org/2000/svg"
   xmlns:svg="http://www.w3.org/2000/svg"><defs
   id="defs433" /><sodipodi:namedview
   id="namedview431"
   pagecolor="#505050"
   bordercolor="#eeeeee"
   borderopacity="1"
   inkscape:pageshadow="0"
   inkscape:pageopacity="0"
   inkscape:pagecheckerboard="0"
   showgrid="false"
   inkscape:zoom="0.732933"
   inkscape:cx="52.528676"
   inkscape:cy="230.58042"
   inkscape:window-width="1920"
   inkscape:window-height="1017"
   inkscape:window-x="-8"
   inkscape:window-y="-8"
   inkscape:window-maximized="1"
   inkscape:current-layer="Layer_1"
   width="300px" />
<style
   type="text/css"
   id="style222">
	.st0{fill:#FFFFFF;}
</style>

<g
   id="g1882"
   transform="translate(-509.95999,-205.98999)"><circle
     cx="579.37"
     cy="275.39999"
     r="69.410004"
     id="circle1878" /><path
     class="st0"
     d="m 600.15,308.53 c -0.04,0 -0.09,0 -0.13,0 -0.44,-0.25 -0.64,-0.7 -0.91,-1.09 -1.28,-1.86 -2.45,-3.8 -3.46,-5.82 -0.06,-0.12 -0.13,-0.24 -0.2,-0.36 -0.16,-0.3 -0.1,-0.48 0.21,-0.61 0.65,-0.27 1.3,-0.54 1.94,-0.82 1.54,-0.68 3.04,-1.45 4.49,-2.3 0.28,-0.16 0.28,-0.25 0.03,-0.47 -0.27,-0.23 -0.56,-0.43 -0.82,-0.66 -0.24,-0.22 -0.48,-0.26 -0.78,-0.12 -1.02,0.48 -2.06,0.92 -3.12,1.33 -3.28,1.27 -6.65,2.2 -10.13,2.76 -1.55,0.25 -3.1,0.42 -4.66,0.52 -1.47,0.1 -2.94,0.16 -4.4,0.11 -1.73,-0.06 -3.46,-0.18 -5.18,-0.42 -2.11,-0.29 -4.21,-0.68 -6.27,-1.23 -2.68,-0.71 -5.3,-1.62 -7.84,-2.74 -0.27,-0.12 -0.54,-0.25 -0.81,-0.37 -0.21,-0.1 -0.41,-0.08 -0.6,0.07 -0.32,0.26 -0.65,0.52 -0.97,0.78 -0.2,0.17 -0.19,0.27 0.04,0.41 0.32,0.19 0.64,0.38 0.97,0.56 1.74,0.95 3.53,1.81 5.38,2.52 0.43,0.16 0.49,0.31 0.28,0.73 -0.79,1.58 -1.68,3.11 -2.63,4.6 -0.49,0.76 -0.99,1.52 -1.52,2.25 -0.12,0.16 -0.25,0.28 -0.43,0.36 -0.02,0 -0.04,0 -0.06,0 -2.08,-0.36 -4,-1.23 -5.94,-2.01 -2.61,-1.05 -5.13,-2.29 -7.59,-3.67 -1.95,-1.1 -3.84,-2.29 -5.69,-3.55 -0.68,-0.46 -1.33,-0.96 -2.01,-1.42 -0.39,-0.26 -0.53,-0.61 -0.55,-1.05 -0.05,-1.14 -0.09,-2.29 -0.12,-3.43 -0.01,-0.37 0.01,-0.74 -0.06,-1.11 0,-1.68 0,-3.37 0,-5.05 0.07,-0.33 0.06,-0.68 0.05,-1.01 -0.01,-3.12 0.38,-6.19 0.91,-9.25 0.54,-3.14 1.31,-6.23 2.27,-9.27 0.86,-2.71 1.89,-5.36 3.04,-7.96 0.72,-1.63 1.5,-3.22 2.34,-4.79 1.13,-2.11 2.34,-4.18 3.64,-6.2 0.04,-0.06 0.09,-0.12 0.12,-0.19 0.3,-0.68 0.86,-1.03 1.52,-1.32 2.23,-0.98 4.48,-1.88 6.79,-2.64 2.71,-0.9 5.47,-1.63 8.28,-2.18 0.5,-0.1 1.01,-0.1 1.52,-0.16 0.31,-0.04 0.47,0.15 0.59,0.39 0.47,0.92 0.94,1.84 1.38,2.78 0.16,0.35 0.32,0.7 0.48,1.05 0.1,0.22 0.26,0.29 0.49,0.26 1.17,-0.17 2.34,-0.31 3.52,-0.41 0.73,-0.06 1.46,-0.12 2.2,-0.15 1.31,-0.05 2.62,-0.16 3.92,-0.11 1.87,0.06 3.74,0.09 5.61,0.3 1.09,0.12 2.18,0.23 3.27,0.38 0.37,0.05 0.46,0.01 0.62,-0.34 0.4,-0.89 0.81,-1.78 1.24,-2.67 0.19,-0.38 0.43,-0.74 0.6,-1.13 0.12,-0.28 0.34,-0.34 0.62,-0.33 1.14,0.06 2.25,0.32 3.36,0.57 2.59,0.58 5.14,1.34 7.64,2.21 2.13,0.75 4.22,1.6 6.27,2.56 0.17,0.08 0.27,0.2 0.36,0.35 1.09,1.67 2.15,3.35 3.13,5.09 0.79,1.4 1.56,2.81 2.26,4.26 1.27,2.62 2.41,5.29 3.38,8.03 0.81,2.27 1.5,4.58 2.07,6.91 0.69,2.81 1.21,5.66 1.55,8.54 0.17,1.43 0.29,2.86 0.32,4.29 0.02,1.19 0.06,2.38 0.06,3.57 0,0.06 -0.02,0.13 0.03,0.18 0,0.62 0,1.24 0,1.85 -0.03,0.03 -0.03,0.08 -0.03,0.12 0.02,1.37 -0.02,2.75 -0.06,4.12 -0.02,0.73 -0.03,1.47 -0.12,2.2 -0.04,0.29 -0.18,0.49 -0.4,0.65 -1.58,1.17 -3.21,2.28 -4.88,3.33 -2.26,1.42 -4.59,2.7 -7,3.85 -2.14,1.03 -4.34,1.94 -6.58,2.74 -0.47,0.17 -0.95,0.33 -1.42,0.5 -0.44,0.18 -0.93,0.24 -1.42,0.33 z M 586.01,280.3 c 0.42,2.36 1.5,4.33 3.44,5.76 1.54,1.13 3.28,1.58 5.18,1.29 1.53,-0.24 2.83,-0.95 3.93,-2.03 0.97,-0.96 1.66,-2.09 2.11,-3.38 0.5,-1.44 0.65,-2.91 0.5,-4.43 -0.12,-1.17 -0.45,-2.29 -1,-3.33 -0.86,-1.63 -2.09,-2.89 -3.79,-3.65 -1.54,-0.69 -3.14,-0.8 -4.76,-0.33 -1.49,0.44 -2.7,1.29 -3.67,2.48 -1.41,1.73 -2.04,3.75 -2.07,5.96 -0.02,0.57 0.03,1.12 0.13,1.66 z m -13.36,-3.74 c -0.61,-2.66 -2.01,-4.73 -4.51,-5.96 -1.29,-0.63 -2.65,-0.82 -4.07,-0.58 -1.93,0.32 -3.47,1.32 -4.64,2.86 -1.48,1.94 -2.08,4.15 -1.89,6.58 0.07,0.98 0.29,1.93 0.66,2.84 0.64,1.57 1.61,2.89 3.02,3.86 1.72,1.18 3.61,1.57 5.64,1.06 2.01,-0.51 3.5,-1.74 4.58,-3.48 0.98,-1.57 1.41,-3.29 1.41,-5.39 0.02,-0.43 -0.05,-1.11 -0.2,-1.79 z"
     id="path1880" /></g></svg>
