<?xml version="1.0" encoding="UTF-8" standalone="no"?>
<!-- Generator: Adobe Illustrator 25.1.0, SVG Export Plug-In . SVG Version: 6.00 Build 0)  -->

<svg
   version="1.1"
   id="Layer_1"
   x="0px"
   y="0px"
   viewBox="0 0 141.00001 140.99999"
   xml:space="preserve"
   sodipodi:docname="Email_Black_circle_v2.svg"
   inkscape:version="1.1.2 (b8e25be833, 2022-02-05)"
   width="141"
   height="141"
   xmlns:inkscape="http://www.inkscape.org/namespaces/inkscape"
   xmlns:sodipodi="http://sodipodi.sourceforge.net/DTD/sodipodi-0.dtd"
   xmlns="http://www.w3.org/2000/svg"
   xmlns:svg="http://www.w3.org/2000/svg"><defs
   id="defs433" /><sodipodi:namedview
   id="namedview431"
   pagecolor="#505050"
   bordercolor="#eeeeee"
   borderopacity="1"
   inkscape:pageshadow="0"
   inkscape:pageopacity="0"
   inkscape:pagecheckerboard="0"
   showgrid="false"
   inkscape:zoom="0.732933"
   inkscape:cx="52.528676"
   inkscape:cy="230.58042"
   inkscape:window-width="1920"
   inkscape:window-height="1017"
   inkscape:window-x="-8"
   inkscape:window-y="-8"
   inkscape:window-maximized="1"
   inkscape:current-layer="Layer_1"
   width="300px" />
<style
   type="text/css"
   id="style222">
	.st0{fill:#FFFFFF;}
</style>

<g
   id="g1908"
   transform="translate(-184.8,-205.98999)"><circle
     cx="254.21001"
     cy="275.39999"
     r="69.410004"
     id="circle1896" /><g
     id="g1906"><path
       class="st0"
       d="m 287.42,250.25 c -0.38,0.25 -0.65,0.37 -0.85,0.57 -10.27,10.26 -20.53,20.52 -30.8,30.78 -1.12,1.12 -1.99,1.12 -3.12,0 -10.3,-10.3 -20.6,-20.6 -30.91,-30.88 -0.53,-0.53 -0.36,-0.66 0.22,-0.84 0.83,-0.27 1.67,-0.37 2.53,-0.37 19.84,0 39.68,0 59.52,0 1.07,-0.02 2.11,0.14 3.41,0.74 z"
       id="path1898" /><path
       class="st0"
       d="m 243.3,278.43 c 2.02,1.99 4.04,3.97 6.05,5.96 3.07,3.05 6.72,3.05 9.78,-0.01 1.85,-1.85 3.72,-3.7 5.56,-5.57 0.35,-0.36 0.53,-0.45 0.94,-0.03 4.3,4.4 8.63,8.77 12.95,13.15 2.65,2.68 5.3,5.35 7.95,8.02 0.75,0.76 0.75,0.77 -0.31,1.09 -0.6,0.18 -1.21,0.27 -1.84,0.27 -20.08,0 -40.15,0 -60.23,0 -0.81,0 -1.59,-0.15 -2.36,-0.41 -0.4,-0.14 -0.43,-0.26 -0.13,-0.56 0.82,-0.8 1.61,-1.62 2.42,-2.43 6.34,-6.43 12.68,-12.87 19.03,-19.3 0.07,-0.07 0.15,-0.14 0.19,-0.18 z"
       id="path1900" /><path
       class="st0"
       d="m 217.27,275.34 c 0,-6.26 0,-12.52 0,-18.77 0,-1.05 0.2,-2.06 0.6,-3.03 0.15,-0.35 0.3,-0.42 0.58,-0.11 0.38,0.42 0.8,0.81 1.21,1.22 6.74,6.74 13.47,13.49 20.21,20.22 0.41,0.41 0.48,0.62 0.03,1.08 -7.09,7.05 -14.15,14.13 -21.22,21.2 -0.59,0.59 -0.61,0.59 -0.92,-0.21 -0.34,-0.88 -0.49,-1.8 -0.49,-2.74 0,-6.29 0,-12.57 0,-18.86 z"
       id="path1902" /><path
       class="st0"
       d="m 290.27,253 c 0.57,1.09 0.86,2.01 0.86,3.01 0,12.93 0,25.86 0,38.79 0,0.92 -0.24,1.78 -0.69,2.65 -2.7,-2.7 -5.36,-5.36 -8.02,-8.02 -3.23,-3.23 -6.45,-6.47 -9.68,-9.71 -1.34,-1.34 -2.65,-2.71 -4.01,-4.03 -0.4,-0.39 -0.41,-0.65 0,-0.98 0.1,-0.08 0.18,-0.18 0.28,-0.27 6.9,-6.91 13.79,-13.82 20.69,-20.73 0.19,-0.19 0.33,-0.41 0.57,-0.71 z"
       id="path1904" /></g></g></svg>
