<?xml version="1.0" encoding="UTF-8" standalone="no"?>
<!-- Generator: Adobe Illustrator 25.1.0, SVG Export Plug-In . SVG Version: 6.00 Build 0)  -->

<svg
   version="1.1"
   id="Layer_1"
   x="0px"
   y="0px"
   viewBox="0 0 141.00001 140.99999"
   xml:space="preserve"
   sodipodi:docname="Etsy_Black_circle_v2.svg"
   inkscape:version="1.1.2 (b8e25be833, 2022-02-05)"
   width="141"
   height="141"
   xmlns:inkscape="http://www.inkscape.org/namespaces/inkscape"
   xmlns:sodipodi="http://sodipodi.sourceforge.net/DTD/sodipodi-0.dtd"
   xmlns="http://www.w3.org/2000/svg"
   xmlns:svg="http://www.w3.org/2000/svg"><defs
   id="defs433" /><sodipodi:namedview
   id="namedview431"
   pagecolor="#505050"
   bordercolor="#eeeeee"
   borderopacity="1"
   inkscape:pageshadow="0"
   inkscape:pageopacity="0"
   inkscape:pagecheckerboard="0"
   showgrid="false"
   inkscape:zoom="0.732933"
   inkscape:cx="52.528676"
   inkscape:cy="230.58042"
   inkscape:window-width="1920"
   inkscape:window-height="1017"
   inkscape:window-x="-8"
   inkscape:window-y="-8"
   inkscape:window-maximized="1"
   inkscape:current-layer="Layer_1"
   width="300px" />
<style
   type="text/css"
   id="style222">
	.st0{fill:#FFFFFF;}
</style>

<g
   id="g2024"
   transform="translate(-183.06,-387.19)"><circle
     cx="252.47"
     cy="456.60001"
     r="69.410004"
     id="circle2012" /><g
     id="g2022"><path
       class="st0"
       d="m 217.85,468.74 c -5.22,0.13 -10.43,0.08 -15.65,0.36 -0.43,0.02 -0.86,0.02 -1.29,0 -0.55,-0.02 -1.03,-0.19 -1.1,-0.83 -0.07,-0.64 0.37,-0.94 0.91,-1.02 1.2,-0.17 2.41,-0.28 3.62,-0.41 1.44,-0.16 1.7,-0.39 1.7,-1.83 0.01,-10.67 0.2,-21.34 -0.09,-32 -0.06,-2.08 -0.28,-2.29 -2.39,-2.44 -0.82,-0.06 -1.64,-0.1 -2.46,-0.18 -0.62,-0.06 -1.07,-0.37 -0.99,-1.06 0.08,-0.68 0.57,-0.89 1.19,-0.83 3.05,0.32 6.11,0.17 9.17,0.2 5.45,0.05 10.9,0.03 16.36,0.04 1.8,0 3.6,0.04 5.4,0.02 1,-0.01 1.4,0.5 1.25,1.39 -0.38,2.31 -0.25,4.61 -0.1,6.92 0.03,0.41 0.18,0.91 -0.45,1.04 -0.58,0.12 -0.88,-0.23 -1.06,-0.71 -0.67,-1.76 -1.41,-3.48 -2.3,-5.15 -0.59,-1.1 -1.37,-1.51 -2.62,-1.56 -4.51,-0.2 -9.02,0.1 -13.53,0.07 -1.13,-0.01 -1.61,0.48 -1.72,1.58 -0.12,1.25 -0.15,2.5 -0.14,3.76 0.04,3.29 0.09,6.59 0.11,9.88 0,0.6 0.07,0.89 0.8,0.93 4.16,0.24 8.31,-0.08 12.47,-0.05 1.58,0.01 1.92,-0.4 2.2,-2.01 0.14,-0.81 0.23,-1.63 0.39,-2.44 0.07,-0.38 0.19,-0.76 0.37,-1.1 0.23,-0.45 0.59,-0.72 1.15,-0.59 0.63,0.15 0.64,0.63 0.58,1.11 -0.22,1.88 -0.19,3.76 -0.21,5.64 -0.03,2.32 0.02,4.63 0.24,6.94 0.04,0.39 0.03,0.78 0.03,1.17 0,0.4 -0.2,0.68 -0.58,0.78 -0.45,0.12 -0.66,-0.2 -0.77,-0.54 -0.28,-0.81 -0.57,-1.63 -0.76,-2.47 -0.97,-4.09 -1.53,-4.5 -5.68,-4.41 -3.06,0.07 -6.12,0.1 -9.18,0.09 -0.86,0 -1.16,0.28 -1.16,1.16 0.04,4.59 0.02,9.18 0.03,13.77 0,0.43 0.08,0.86 0.09,1.29 0.01,1.02 0.59,1.56 1.54,1.56 5.02,-0.01 10.04,0.39 15.05,-0.18 2.1,-0.24 3.74,-1.31 4.83,-3.18 0.77,-1.32 1.44,-2.69 2.07,-4.09 0.21,-0.46 0.41,-0.93 0.81,-1.28 0.38,-0.33 0.79,-0.35 1.2,-0.12 0.41,0.23 0.27,0.62 0.17,0.95 -0.89,2.71 -1.18,5.51 -1.3,8.34 -0.04,0.99 -0.42,1.53 -1.59,1.52 -5.55,-0.06 -11.08,-0.03 -16.61,-0.03 z"
       id="path2014" /><path
       class="st0"
       d="m 292.92,464.77 c 1.96,-5.53 4.3,-10.81 5.39,-16.5 0.28,-1.45 0.03,-1.8 -1.36,-2.22 -0.71,-0.21 -1.43,-0.42 -2.14,-0.64 -0.45,-0.14 -0.82,-0.41 -0.77,-0.9 0.06,-0.51 0.51,-0.66 0.96,-0.66 3.06,0.02 6.11,0.05 9.17,0.09 0.53,0.01 0.96,0.25 0.95,0.81 -0.01,0.51 -0.33,0.85 -0.9,0.89 -2.09,0.13 -3.14,1.22 -3.86,3.26 -3.3,9.47 -6.77,18.88 -10.24,28.29 -0.81,2.2 -1.64,4.43 -3.42,6.1 -1.07,1.01 -2.35,1.57 -3.85,1.39 -1.56,-0.18 -2.49,-1.43 -2.22,-2.89 0.27,-1.47 1.39,-2.19 2.96,-1.9 2.84,0.51 2.84,0.51 4.18,-2.01 0.15,-0.28 0.29,-0.56 0.43,-0.83 1.94,-3.62 2.44,-7.13 0.72,-11.19 -2.47,-5.83 -4.34,-11.92 -6.35,-17.94 -0.46,-1.39 -1.39,-1.86 -2.57,-2.25 -0.33,-0.11 -0.69,-0.18 -0.99,-0.34 -0.33,-0.18 -0.48,-0.51 -0.37,-0.9 0.1,-0.36 0.36,-0.51 0.7,-0.52 0.78,-0.03 1.57,-0.05 2.35,-0.04 2.78,0.04 5.56,0.07 8.34,0.14 0.55,0.01 1.31,-0.07 1.3,0.82 -0.01,0.84 -0.75,0.77 -1.3,0.87 -0.85,0.16 -1.7,0.28 -2.55,0.42 -0.64,0.11 -0.85,0.46 -0.65,1.09 1.85,5.78 3.57,11.61 5.71,17.29 0.06,0.04 0.14,0.07 0.38,0.27 z"
       id="path2016" /><path
       class="st0"
       d="m 274.84,447.37 c 0,0.51 0.04,1.02 -0.01,1.53 -0.05,0.48 0.42,1.15 -0.39,1.38 -0.8,0.23 -1.15,-0.21 -1.45,-0.94 -0.88,-2.11 -2.3,-3.75 -4.54,-4.47 -1.49,-0.48 -2.9,-0.26 -3.98,0.97 -1.08,1.24 -1.22,2.68 -0.6,4.18 0.36,0.87 1.1,1.4 1.89,1.87 1.52,0.91 3.18,1.52 4.77,2.29 2.65,1.28 4.75,3.05 5.48,6.05 1.06,4.31 -1.45,8.24 -6.05,9.34 -3.13,0.75 -6.15,0.18 -9.08,-1.01 -0.46,-0.19 -0.78,-0.5 -0.83,-1.04 -0.16,-1.95 -0.35,-3.9 -0.51,-5.86 -0.04,-0.52 -0.04,-1.04 0.65,-1.19 0.72,-0.16 0.84,0.36 1.02,0.84 0.68,1.76 1.35,3.51 2.8,4.83 0.98,0.9 2.08,1.53 3.39,1.78 2,0.39 3.57,-0.39 4.72,-1.94 1.14,-1.53 0.71,-3.14 -0.15,-4.64 -1.03,-1.81 -2.83,-2.65 -4.62,-3.48 -1.56,-0.72 -3.19,-1.29 -4.64,-2.25 -2.45,-1.61 -3.47,-3.88 -3.12,-6.75 0.33,-2.65 1.88,-4.44 4.3,-5.44 3.31,-1.37 6.6,-0.94 9.84,0.32 0.59,0.23 0.84,0.64 0.86,1.26 0.03,0.78 0.1,1.56 0.15,2.35 0.04,0.02 0.07,0.02 0.1,0.02 z"
       id="path2018" /><path
       class="st0"
       d="m 243.97,456.24 c 0,-2.59 -0.03,-5.18 0.02,-7.76 0.01,-0.83 -0.26,-1.13 -1.08,-1.04 -0.58,0.07 -1.18,0.03 -1.76,0.06 -0.48,0.02 -0.87,-0.12 -1.01,-0.61 -0.13,-0.47 0.1,-0.84 0.46,-1.13 0.09,-0.07 0.19,-0.14 0.3,-0.18 3.04,-1.25 4.68,-3.68 5.61,-6.7 0.09,-0.3 0.25,-0.58 0.36,-0.87 0.21,-0.58 0.7,-0.39 1.1,-0.39 0.53,-0.01 0.48,0.41 0.49,0.76 0.01,1.69 0.07,3.37 0.01,5.06 -0.03,0.81 0.25,1.04 1,0.99 2.07,-0.14 4.15,-0.19 6.23,-0.2 0.89,-0.01 1.04,0.47 0.93,1.09 -0.11,0.66 0.38,1.72 -0.94,1.75 -2.08,0.06 -4.16,0.16 -6.23,0.16 -0.89,0 -1.19,0.35 -1.19,1.17 0.01,4.98 -0.06,9.96 0.04,14.94 0.06,2.97 1.36,3.87 4.29,3.32 0.97,-0.18 1.91,-0.42 2.72,-1.04 0.45,-0.35 0.98,-0.4 1.35,0.09 0.37,0.49 0.11,0.93 -0.27,1.35 -2.05,2.18 -6.79,3.21 -9.54,1.98 -1.65,-0.73 -2.67,-1.98 -2.85,-3.86 -0.3,-2.98 -0.13,-5.96 -0.04,-8.94 z"
       id="path2020" /></g></g></svg>
