<?xml version="1.0" encoding="UTF-8" standalone="no"?>
<!-- Generator: Adobe Illustrator 25.1.0, SVG Export Plug-In . SVG Version: 6.00 Build 0)  -->

<svg
   version="1.1"
   id="Layer_1"
   x="0px"
   y="0px"
   viewBox="0 0 141.00001 140.99999"
   xml:space="preserve"
   sodipodi:docname="Google_Black_circle_v2.svg"
   inkscape:version="1.1.2 (b8e25be833, 2022-02-05)"
   width="141"
   height="141"
   xmlns:inkscape="http://www.inkscape.org/namespaces/inkscape"
   xmlns:sodipodi="http://sodipodi.sourceforge.net/DTD/sodipodi-0.dtd"
   xmlns="http://www.w3.org/2000/svg"
   xmlns:svg="http://www.w3.org/2000/svg"><defs
   id="defs433" /><sodipodi:namedview
   id="namedview431"
   pagecolor="#505050"
   bordercolor="#eeeeee"
   borderopacity="1"
   inkscape:pageshadow="0"
   inkscape:pageopacity="0"
   inkscape:pagecheckerboard="0"
   showgrid="false"
   inkscape:zoom="0.732933"
   inkscape:cx="52.528676"
   inkscape:cy="230.58042"
   inkscape:window-width="1920"
   inkscape:window-height="1017"
   inkscape:window-x="-8"
   inkscape:window-y="-8"
   inkscape:window-maximized="1"
   inkscape:current-layer="Layer_1"
   width="300px" />
<style
   type="text/css"
   id="style222">
	.st0{fill:#FFFFFF;}
</style>

<g
   id="g1830"
   transform="translate(-22.219994,-205.98999)"><circle
     cx="91.629997"
     cy="275.39999"
     r="69.410004"
     id="circle1822" /><g
     id="g1828"><path
       class="st0"
       d="m 88.05,260.9 5.88,-5.6 c 0,0 -6.3,-8.27 -20.03,-8.27 -13.73,0 -28.16,11.49 -28.16,27.88 0,16.39 10.93,28.86 27.32,28.86 16.39,0 26.9,-7.85 26.9,-29.56 H 72.85 v 7.43 h 17.86 c 0,0 -0.56,14.43 -17.86,14.43 0,0 -19.26,-1.62 -19.26,-20.67 0,0 0.14,-20.1 20.6,-20.1 -0.01,0 6.16,-0.85 13.86,5.6 z"
       id="path1824" /><polygon
       class="st0"
       points="120,292.14 120,281.07 109.07,281.07 109.07,273.81 120,273.93 120,263.28 126.86,263.28 126.86,273.93 137.51,273.93 137.51,281.07 127.14,281.07 127.14,292.14 "
       id="polygon1826" /></g></g></svg>
