<?xml version="1.0" encoding="UTF-8" standalone="no" ?>
<!-- Generator: Adobe Illustrator 25.1.0, SVG Export Plug-In . SVG Version: 6.00 Build 0)  -->
<svg
  id="Layer_1"
  x="0px"
  y="0px"
  viewBox="0 0 141.00001 140.99999"
  xml:space="preserve"
  width="141"
  height="141"
  class="mx-20"
>
  <defs id="defs433" />

  <g id="g1938" transform="translate(-347.38,-24.789993)">
    <circle cx="416.79001" cy="94.199997" r="69.410004" id="circle1928" />
    <g id="g1936">
      <path
        class="st0 text-white"
        fill="currentColor"
        d="m 459.85,94.26 c 0,6.21 -0.03,12.42 0.01,18.62 0.03,5.86 -1.69,11.11 -5.4,15.64 -3.34,4.08 -7.61,6.77 -12.76,8.03 -1.91,0.47 -3.84,0.69 -5.79,0.69 -12.72,0 -25.45,0.02 -38.17,-0.01 -7.46,-0.02 -13.66,-2.9 -18.47,-8.58 -3.65,-4.31 -5.48,-9.38 -5.5,-15.03 -0.04,-12.96 -0.13,-25.91 0.03,-38.87 0.1,-8.75 4.09,-15.51 11.51,-20.17 3.77,-2.36 7.95,-3.42 12.39,-3.42 12.72,0 25.45,-0.02 38.17,0.01 7.46,0.02 13.67,2.9 18.47,8.58 3.66,4.33 5.47,9.42 5.5,15.1 0.04,6.47 0.01,12.94 0.01,19.41 z M 398,58.81 c -2.47,0 -4.89,0.35 -7.11,1.45 -6.18,3.05 -9.43,8.06 -9.47,14.94 -0.08,12.67 -0.03,25.35 -0.02,38.02 0,2.37 0.37,4.69 1.41,6.84 3.04,6.22 8.06,9.49 14.97,9.53 12.68,0.08 25.35,0.03 38.03,0.02 2.4,0 4.74,-0.38 6.9,-1.44 6.23,-3.08 9.44,-8.14 9.48,-15.08 0.06,-12.58 0.02,-25.16 0.01,-37.74 0,-1.2 -0.06,-2.41 -0.31,-3.58 -0.89,-4.08 -2.99,-7.41 -6.38,-9.88 -2.93,-2.14 -6.24,-3.08 -9.84,-3.07 -6.28,0 -12.56,0 -18.84,0 C 410.56,58.81 404.28,58.8 398,58.81 Z"
        id="path1930"
      />
      <path
        class="st0 text-white"
        fill="currentColor"
        d="m 439.93,76.73 c -3.09,0 -5.62,-2.53 -5.61,-5.59 0.01,-3.06 2.58,-5.6 5.64,-5.58 3.04,0.02 5.54,2.52 5.58,5.57 0.02,3.04 -2.54,5.6 -5.61,5.6 z"
        id="path1932"
      />
      <path
        class="st0 text-white"
        fill="currentColor"
        d="m 394.63,94.21 c 0,-12.22 9.99,-22.2 22.21,-22.17 12.2,0.02 22.14,9.97 22.14,22.17 0,12.22 -9.99,22.2 -22.21,22.17 -12.2,-0.02 -22.14,-9.98 -22.14,-22.17 z m 22.19,-14.53 c -7.99,-0.02 -14.51,6.47 -14.55,14.49 -0.04,8.01 6.53,14.58 14.55,14.56 8.01,-0.02 14.51,-6.53 14.51,-14.53 0,-7.99 -6.5,-14.5 -14.51,-14.52 z"
        id="path1934"
      />
    </g>
  </g>
</svg>
