<?xml version="1.0" encoding="UTF-8" standalone="no"?>
<!-- Generator: Adobe Illustrator 25.1.0, SVG Export Plug-In . SVG Version: 6.00 Build 0)  -->

<svg
   version="1.1"
   id="Layer_1"
   x="0px"
   y="0px"
   viewBox="0 0 141.00001 140.99999"
   xml:space="preserve"
   sodipodi:docname="linkedin_Black_circle_v2.svg"
   inkscape:version="1.1.2 (b8e25be833, 2022-02-05)"
   width="141"
   height="141"
   xmlns:inkscape="http://www.inkscape.org/namespaces/inkscape"
   xmlns:sodipodi="http://sodipodi.sourceforge.net/DTD/sodipodi-0.dtd"
   xmlns="http://www.w3.org/2000/svg"
   xmlns:svg="http://www.w3.org/2000/svg"><defs
   id="defs433" /><sodipodi:namedview
   id="namedview431"
   pagecolor="#505050"
   bordercolor="#eeeeee"
   borderopacity="1"
   inkscape:pageshadow="0"
   inkscape:pageopacity="0"
   inkscape:pagecheckerboard="0"
   showgrid="false"
   inkscape:zoom="0.732933"
   inkscape:cx="52.528676"
   inkscape:cy="230.58042"
   inkscape:window-width="1920"
   inkscape:window-height="1017"
   inkscape:window-x="-8"
   inkscape:window-y="-8"
   inkscape:window-maximized="1"
   inkscape:current-layer="Layer_1"
   width="300px" />
<style
   type="text/css"
   id="style222">
	.st0{fill:#FFFFFF;}
</style>

<g
   id="g1980"
   transform="translate(-992.48001,-387.19)"><circle
     cx="1061.89"
     cy="456.60001"
     r="69.410004"
     id="circle1976" /><path
     class="st0"
     d="m 1098.84,456.65 c 0,9.97 0.01,19.95 -0.01,29.92 0,2.85 -1.25,4.99 -3.83,6.3 -1.01,0.51 -2.1,0.67 -3.23,0.67 -13.63,0 -27.26,0 -40.89,0 -6.34,0 -12.68,0.02 -19.02,-0.01 -2.82,-0.01 -4.95,-1.25 -6.25,-3.8 -0.48,-0.94 -0.68,-1.94 -0.68,-2.98 -0.01,-20.11 -0.01,-40.21 0,-60.32 0,-3.21 2.01,-5.76 5.13,-6.58 0.58,-0.15 1.19,-0.2 1.8,-0.2 20.01,0 40.02,0 60.03,0 3.32,0 5.87,1.94 6.72,5.11 0.17,0.64 0.21,1.31 0.21,1.98 0.02,9.97 0.02,19.94 0.02,29.91 z m -33.36,-7.77 c -0.02,-1.34 -0.77,-2.09 -2.11,-2.09 -2.64,0 -5.29,0 -7.93,0 -1.43,0 -2.15,0.72 -2.15,2.17 0,11.42 0,22.85 0,34.27 0,1.47 0.71,2.17 2.2,2.17 2.56,0 5.13,0 7.69,0 1.63,0 2.31,-0.69 2.31,-2.32 0,-5.75 0.01,-11.5 -0.01,-17.26 -0.01,-1.55 0.24,-3.04 0.75,-4.51 1.01,-2.94 3.12,-4.59 5.97,-4.61 2.9,-0.03 4.77,1.28 5.76,3.98 0.51,1.41 0.66,2.87 0.67,4.34 0.02,6.12 0.01,12.23 0.01,18.35 0,1.25 0.72,2.02 1.97,2.03 2.85,0.01 5.69,0.02 8.54,0 1.21,-0.01 1.95,-0.76 1.95,-1.98 0.01,-1.98 0.02,-3.96 0,-5.93 -0.05,-5.33 0.15,-10.66 -0.15,-15.98 -0.14,-2.53 -0.54,-5.01 -1.46,-7.38 -1.42,-3.66 -3.91,-6.22 -7.76,-7.29 -2.87,-0.8 -5.78,-0.79 -8.69,-0.24 -1.97,0.37 -3.76,1.15 -5.31,2.46 -0.82,0.69 -1.48,1.52 -2.23,2.5 -0.02,-1.01 -0.01,-1.85 -0.02,-2.68 z m -17.67,14.56 c 0,-4.8 0,-9.61 0,-14.41 0,-1.48 -0.77,-2.23 -2.25,-2.23 -2.6,0 -5.21,-0.01 -7.81,0 -1.3,0 -2.11,0.83 -2.12,2.13 -0.01,1.09 0,2.18 0,3.27 0,10.32 0,20.63 0,30.95 0,1.4 0.74,2.24 2.05,2.26 2.71,0.03 5.41,0.01 8.12,0 0.73,0 1.33,-0.29 1.73,-0.93 0.28,-0.45 0.3,-0.95 0.3,-1.46 0,-5.63 0,-11.26 0,-16.9 -0.02,-0.91 -0.02,-1.8 -0.02,-2.68 z m -6.11,-19.93 c 4.36,0.01 7.93,-3.56 7.89,-7.89 -0.04,-4.34 -3.58,-7.85 -7.89,-7.83 -4.35,0.02 -7.82,3.52 -7.82,7.87 -0.01,4.36 3.47,7.84 7.82,7.85 z"
     id="path1978" /></g></svg>
