<?xml version="1.0" encoding="UTF-8" standalone="no"?>
<!-- Generator: Adobe Illustrator 25.1.0, SVG Export Plug-In . SVG Version: 6.00 Build 0)  -->

<svg
   version="1.1"
   id="Layer_1"
   x="0px"
   y="0px"
   viewBox="0 0 141.00001 140.99999"
   xml:space="preserve"
   sodipodi:docname="pintrist_Black_circle_v2.svg"
   inkscape:version="1.1.2 (b8e25be833, 2022-02-05)"
   width="141"
   height="141"
   xmlns:inkscape="http://www.inkscape.org/namespaces/inkscape"
   xmlns:sodipodi="http://sodipodi.sourceforge.net/DTD/sodipodi-0.dtd"
   xmlns="http://www.w3.org/2000/svg"
   xmlns:svg="http://www.w3.org/2000/svg"><defs
   id="defs433" /><sodipodi:namedview
   id="namedview431"
   pagecolor="#505050"
   bordercolor="#eeeeee"
   borderopacity="1"
   inkscape:pageshadow="0"
   inkscape:pageopacity="0"
   inkscape:pagecheckerboard="0"
   showgrid="false"
   inkscape:zoom="0.732933"
   inkscape:cx="52.528676"
   inkscape:cy="230.58042"
   inkscape:window-width="1920"
   inkscape:window-height="1017"
   inkscape:window-x="-8"
   inkscape:window-y="-8"
   inkscape:window-maximized="1"
   inkscape:current-layer="Layer_1"
   width="300px" />
<style
   type="text/css"
   id="style222">
	.st0{fill:#FFFFFF;}
</style>

<g
   id="g1956"
   transform="translate(-669.05997,-24.789993)"><circle
     cx="738.46997"
     cy="94.199997"
     r="69.410004"
     id="circle1952" /><path
     class="st0"
     d="m 734.12,104.64 c -0.36,1.42 -0.7,2.77 -1.04,4.11 -0.52,2.02 -1.04,4.03 -1.55,6.05 -0.59,2.32 -1.53,4.5 -2.68,6.59 -1.29,2.37 -2.79,4.6 -4.45,6.73 -0.07,0.09 -0.13,0.19 -0.21,0.26 -0.16,0.16 -0.35,0.23 -0.58,0.16 -0.22,-0.07 -0.32,-0.23 -0.35,-0.44 -0.11,-0.8 -0.23,-1.6 -0.31,-2.4 -0.22,-2.1 -0.32,-4.21 -0.28,-6.32 0.04,-2.35 0.32,-4.66 0.87,-6.94 0.92,-3.8 1.8,-7.6 2.7,-11.4 0.7,-2.96 1.4,-5.92 2.11,-8.88 0.08,-0.34 0.07,-0.64 -0.06,-0.98 -0.61,-1.49 -0.92,-3.06 -1.04,-4.66 -0.12,-1.66 0.01,-3.28 0.46,-4.88 0.44,-1.59 1.17,-3.04 2.3,-4.26 1.12,-1.2 2.46,-2 4.11,-2.18 1.53,-0.17 2.97,0.11 4.18,1.15 0.88,0.76 1.38,1.75 1.64,2.86 0.3,1.25 0.25,2.5 0.05,3.76 -0.35,2.13 -1,4.18 -1.63,6.24 -0.59,1.95 -1.23,3.89 -1.68,5.88 -0.52,2.28 -0.02,4.29 1.71,5.9 1.41,1.32 3.14,1.8 5.05,1.68 2.32,-0.15 4.23,-1.16 5.88,-2.74 1.78,-1.71 2.99,-3.8 3.92,-6.06 0.98,-2.39 1.57,-4.87 1.9,-7.43 0.22,-1.72 0.34,-3.44 0.3,-5.17 -0.07,-2.69 -0.66,-5.25 -2.05,-7.59 -1.69,-2.86 -4.16,-4.79 -7.26,-5.93 -2.74,-1.01 -5.59,-1.31 -8.49,-1.14 -2.3,0.13 -4.52,0.58 -6.64,1.47 -4.64,1.94 -7.95,5.23 -9.94,9.85 -0.87,2.02 -1.34,4.14 -1.48,6.34 -0.11,1.78 0.01,3.54 0.54,5.25 0.4,1.29 1.02,2.45 1.88,3.5 0.16,0.2 0.32,0.39 0.48,0.6 0.35,0.46 0.46,0.96 0.31,1.52 -0.3,1.14 -0.57,2.28 -0.87,3.41 -0.28,1.05 -1.04,1.42 -2.06,1 -1.76,-0.74 -3.24,-1.85 -4.44,-3.33 -1.47,-1.8 -2.37,-3.88 -2.93,-6.12 -0.59,-2.34 -0.77,-4.73 -0.59,-7.13 0.28,-3.69 1.43,-7.12 3.35,-10.28 2.94,-4.85 7.08,-8.31 12.3,-10.49 2.64,-1.11 5.4,-1.78 8.24,-2.12 2.29,-0.27 4.58,-0.35 6.88,-0.14 5.76,0.52 10.9,2.51 15.2,6.45 3.57,3.26 5.87,7.27 6.85,12.01 0.35,1.72 0.42,3.45 0.38,5.2 -0.11,4.08 -0.81,8.05 -2.32,11.86 -1.33,3.35 -3.19,6.35 -5.83,8.83 -2.74,2.58 -5.95,4.25 -9.67,4.91 -1.57,0.28 -3.15,0.42 -4.74,0.24 -2.87,-0.33 -5.41,-1.4 -7.45,-3.51 -0.36,-0.36 -0.64,-0.78 -0.97,-1.29 z"
     id="path1954" /></g></svg>
