<?xml version="1.0" encoding="UTF-8" standalone="no"?>
<!-- Generator: Adobe Illustrator 25.1.0, SVG Export Plug-In . SVG Version: 6.00 Build 0)  -->

<svg
   version="1.1"
   id="Layer_1"
   x="0px"
   y="0px"
   viewBox="0 0 141.00001 140.99999"
   xml:space="preserve"
   sodipodi:docname="Reddit_Black_circle_v2.svg"
   inkscape:version="1.1.2 (b8e25be833, 2022-02-05)"
   width="141"
   height="141"
   xmlns:inkscape="http://www.inkscape.org/namespaces/inkscape"
   xmlns:sodipodi="http://sodipodi.sourceforge.net/DTD/sodipodi-0.dtd"
   xmlns="http://www.w3.org/2000/svg"
   xmlns:svg="http://www.w3.org/2000/svg"><defs
   id="defs433" /><sodipodi:namedview
   id="namedview431"
   pagecolor="#505050"
   bordercolor="#eeeeee"
   borderopacity="1"
   inkscape:pageshadow="0"
   inkscape:pageopacity="0"
   inkscape:pagecheckerboard="0"
   showgrid="false"
   inkscape:zoom="0.732933"
   inkscape:cx="52.528676"
   inkscape:cy="230.58042"
   inkscape:window-width="1920"
   inkscape:window-height="1017"
   inkscape:window-x="-8"
   inkscape:window-y="-8"
   inkscape:window-maximized="1"
   inkscape:current-layer="Layer_1"
   width="300px" />
<style
   type="text/css"
   id="style222">
	.st0{fill:#FFFFFF;}
</style>

<g
   id="g1968"
   transform="translate(-508.22,-387.19)"><circle
     cx="577.63"
     cy="456.60001"
     r="69.410004"
     id="circle1964" /><path
     class="st0"
     d="m 587.46,495.13 c 8.63,-1.62 16.45,-4.92 22.79,-11.17 5.69,-5.61 8.55,-12.36 7.54,-20.44 -0.15,-1.23 0.12,-1.81 1.07,-2.5 2.48,-1.8 4.13,-4.21 4.4,-7.33 0.36,-4.11 -1.91,-8.2 -5.34,-9.96 -3.93,-2.01 -8.97,-1.33 -11.71,1.37 -0.33,0.33 -0.55,0.24 -0.87,0.03 -0.75,-0.5 -1.51,-1 -2.3,-1.44 -6.28,-3.56 -13.03,-5.51 -20.22,-5.95 -0.55,-0.03 -0.83,-0.06 -0.6,-0.76 1.51,-4.59 2.97,-9.19 4.44,-13.79 0.15,-0.46 0.32,-0.59 0.84,-0.48 4.11,0.91 8.23,1.77 12.35,2.64 0.43,0.09 0.64,0.26 0.75,0.74 0.47,2.21 1.7,3.9 3.63,5.09 2.64,1.63 6.33,1.45 8.78,-0.45 2.6,-2.02 3.68,-5.38 2.63,-8.42 -0.97,-2.81 -3.08,-4.34 -5.9,-4.91 -2.95,-0.6 -5.4,0.4 -7.34,2.67 -0.33,0.38 -0.59,0.57 -1.13,0.45 -5,-1.09 -10,-2.14 -15,-3.22 -2,-0.43 -2.89,0.08 -3.5,2.02 -1.81,5.71 -3.62,11.41 -5.4,17.13 -0.17,0.53 -0.39,0.71 -0.93,0.71 -2.95,0.01 -5.86,0.35 -8.76,0.9 -6.23,1.2 -12.04,3.44 -17.28,7.06 -0.42,0.29 -0.69,0.18 -1.05,-0.03 -1.66,-0.96 -3.32,-1.91 -5.24,-2.32 -6.63,-1.41 -13.09,3.89 -12.02,11.35 0.48,3.33 2.43,5.71 5.16,7.52 0.3,0.2 0.49,0.3 0.41,0.77 -1.03,5.91 0.06,11.42 3.27,16.48 3.78,5.97 9.24,9.95 15.57,12.77 6.73,3 13.85,4.25 21.28,4.32 3.17,-0.05 6.45,-0.24 9.68,-0.85 z m -8.83,-9.83 c -6.28,0.01 -11.16,-1.32 -15.5,-4.42 -0.32,-0.23 -0.63,-0.47 -0.88,-0.79 -0.83,-1.09 -0.9,-2.24 -0.17,-3.01 1.04,-1.1 2.3,-1.28 3.48,-0.47 4.06,2.76 8.54,4.09 13.45,3.76 3.86,-0.26 7.4,-1.5 10.59,-3.69 1.32,-0.9 2.73,-0.69 3.74,0.56 0.58,0.72 0.51,1.75 -0.25,2.73 -0.83,1.08 -1.97,1.78 -3.14,2.41 -3.84,2.06 -7.97,2.94 -11.32,2.92 z m 13.12,-30.1 c 3.47,0 6.3,2.9 6.28,6.42 -0.02,3.33 -2.96,6.17 -6.37,6.16 -3.46,-0.01 -6.23,-2.89 -6.22,-6.48 0,-3.29 2.9,-6.1 6.31,-6.1 z m -28.13,0.01 c 3.45,0.04 6.25,2.92 6.23,6.4 -0.02,3.26 -2.98,6.21 -6.21,6.18 -3.6,-0.03 -6.43,-2.87 -6.39,-6.42 0.04,-3.41 2.93,-6.2 6.37,-6.16 z"
     id="path1966" /></g></svg>
