<?xml version="1.0" encoding="UTF-8" standalone="no"?>
<!-- Generator: Adobe Illustrator 25.1.0, SVG Export Plug-In . SVG Version: 6.00 Build 0)  -->

<svg
   version="1.1"
   id="Layer_1"
   x="0px"
   y="0px"
   viewBox="0 0 141.00001 140.99999"
   xml:space="preserve"
   sodipodi:docname="SnapChat_Black_circle_v2.svg"
   inkscape:version="1.1.2 (b8e25be833, 2022-02-05)"
   width="141"
   height="141"
   xmlns:inkscape="http://www.inkscape.org/namespaces/inkscape"
   xmlns:sodipodi="http://sodipodi.sourceforge.net/DTD/sodipodi-0.dtd"
   xmlns="http://www.w3.org/2000/svg"
   xmlns:svg="http://www.w3.org/2000/svg"><defs
   id="defs433" /><sodipodi:namedview
   id="namedview431"
   pagecolor="#505050"
   bordercolor="#eeeeee"
   borderopacity="1"
   inkscape:pageshadow="0"
   inkscape:pageopacity="0"
   inkscape:pagecheckerboard="0"
   showgrid="false"
   inkscape:zoom="0.732933"
   inkscape:cx="52.528676"
   inkscape:cy="230.58042"
   inkscape:window-width="1920"
   inkscape:window-height="1017"
   inkscape:window-x="-8"
   inkscape:window-y="-8"
   inkscape:window-maximized="1"
   inkscape:current-layer="Layer_1"
   width="300px" />
<style
   type="text/css"
   id="style222">
	.st0{fill:#FFFFFF;}
</style>

<g
   id="g1926"
   transform="translate(-509.95999,-24.789993)"><circle
     cx="579.37"
     cy="94.199997"
     r="69.410004"
     id="circle1922" /><path
     class="st0"
     d="m 601.66,79.16 c -0.14,2.4 -0.28,4.8 -0.4,7.2 -0.06,1.14 0.26,1.4 1.43,1.25 0.96,-0.12 1.89,-0.39 2.75,-0.81 1.67,-0.81 3.25,-0.53 4.73,0.43 1.87,1.21 2.02,3.24 0.43,4.78 -1.3,1.25 -2.95,1.8 -4.61,2.33 -1.02,0.33 -2.03,0.7 -2.94,1.27 -1.16,0.72 -1.63,1.8 -1.09,3.04 3.13,7.15 7.9,12.53 15.87,14.32 0.88,0.2 1.66,0.49 1.95,1.41 0.3,0.95 -0.11,1.76 -0.75,2.42 -1.34,1.38 -3.14,1.9 -4.92,2.4 -1.46,0.41 -2.93,0.78 -4.44,0.94 -0.51,0.06 -0.8,0.28 -0.91,0.8 -0.2,0.94 -0.42,1.87 -0.69,2.79 -0.38,1.32 -0.96,1.78 -2.34,1.69 -1.43,-0.1 -2.85,-0.37 -4.28,-0.54 -3.7,-0.44 -7,0.43 -9.97,2.76 -2.36,1.85 -4.87,3.52 -7.86,4.21 -5.17,1.2 -9.98,0.36 -14.34,-2.73 -0.69,-0.49 -1.43,-0.93 -2.08,-1.47 -3.8,-3.14 -8.15,-3.32 -12.7,-2.35 -0.66,0.14 -1.32,0.17 -1.98,0.16 -0.87,-0.01 -1.49,-0.44 -1.75,-1.27 -0.29,-0.91 -0.58,-1.84 -0.72,-2.78 -0.14,-0.89 -0.56,-1.2 -1.44,-1.33 -2.23,-0.33 -4.42,-0.84 -6.51,-1.72 -0.93,-0.39 -1.8,-0.88 -2.5,-1.62 -0.65,-0.69 -0.93,-1.52 -0.64,-2.45 0.27,-0.86 1,-1.13 1.79,-1.29 7.97,-1.7 12.7,-7.09 15.92,-14.13 0.67,-1.46 0.2,-2.52 -1.19,-3.37 -1.11,-0.68 -2.36,-1.03 -3.59,-1.43 -1.31,-0.43 -2.54,-1.01 -3.61,-1.89 -1.74,-1.44 -1.64,-3.75 0.25,-4.95 1.34,-0.84 2.76,-1.21 4.3,-0.43 0.89,0.45 1.87,0.7 2.86,0.83 1.55,0.2 1.87,-0.16 1.76,-1.71 -0.25,-3.54 -0.5,-7.08 -0.25,-10.64 0.6,-8.45 5.07,-14.26 12.72,-17.27 8.08,-3.19 16.13,-2.64 23.46,2.45 3.98,2.77 6.62,6.65 7.75,11.4 0.53,2.38 0.55,4.85 0.53,7.3 z"
     id="path1924" /></g></svg>
