<?xml version="1.0" encoding="UTF-8" standalone="no"?>
<!-- Generator: Adobe Illustrator 25.1.0, SVG Export Plug-In . SVG Version: 6.00 Build 0)  -->

<svg
   version="1.1"
   id="Layer_1"
   x="0px"
   y="0px"
   viewBox="0 0 141.00001 140.99999"
   xml:space="preserve"
   sodipodi:docname="SoundCloud_Black_circle_v2.svg"
   inkscape:version="1.1.2 (b8e25be833, 2022-02-05)"
   width="141"
   height="141"
   xmlns:inkscape="http://www.inkscape.org/namespaces/inkscape"
   xmlns:sodipodi="http://sodipodi.sourceforge.net/DTD/sodipodi-0.dtd"
   xmlns="http://www.w3.org/2000/svg"
   xmlns:svg="http://www.w3.org/2000/svg"><defs
   id="defs433" /><sodipodi:namedview
   id="namedview431"
   pagecolor="#505050"
   bordercolor="#eeeeee"
   borderopacity="1"
   inkscape:pageshadow="0"
   inkscape:pageopacity="0"
   inkscape:pagecheckerboard="0"
   showgrid="false"
   inkscape:zoom="0.732933"
   inkscape:cx="52.528676"
   inkscape:cy="230.58042"
   inkscape:window-width="1920"
   inkscape:window-height="1017"
   inkscape:window-x="-8"
   inkscape:window-y="-8"
   inkscape:window-maximized="1"
   inkscape:current-layer="Layer_1"
   width="300px" />
<style
   type="text/css"
   id="style222">
	.st0{fill:#FFFFFF;}
</style>

<g
   id="g1864"
   transform="translate(-994.22,-205.98999)"><circle
     cx="1063.63"
     cy="275.39999"
     r="69.410004"
     id="circle1832" /><g
     id="g1862"><path
       class="st0"
       d="m 1081.94,294.27 c -4.99,0 -9.97,0 -14.96,0 -0.96,0 -0.96,0 -0.97,-0.97 -0.1,-11.13 -0.19,-22.26 -0.29,-33.4 -0.02,-1.93 -0.01,-1.92 1.71,-2.66 1.79,-0.77 3.66,-0.97 5.58,-0.87 3.42,0.19 6.63,1.15 9.54,3.02 4.96,3.19 8.06,7.76 9.27,13.66 0.09,0.43 0.19,0.47 0.57,0.34 3.73,-1.29 7.2,-0.77 10.31,1.74 1.85,1.49 3.04,3.45 3.6,5.79 0.75,3.14 0.22,6.06 -1.54,8.72 -1.51,2.28 -3.6,3.74 -6.2,4.41 -1.1,0.29 -2.22,0.34 -3.36,0.26 -0.6,-0.05 -1.2,-0.05 -1.8,-0.05 -3.82,0 -7.64,0.01 -11.46,0.01 z"
       id="path1834" /><path
       class="st0"
       d="m 1064.84,272.18 c 0.09,3.34 0.22,6.68 0.26,10.02 0.03,2.61 -0.28,5.2 -0.4,7.81 -0.04,0.95 -0.11,1.89 -0.16,2.83 -0.02,0.39 -0.08,0.77 -0.31,1.1 -0.28,0.39 -0.64,0.61 -1.12,0.47 -0.48,-0.14 -0.76,-0.49 -0.8,-1.01 -0.1,-1.52 -0.16,-3.05 -0.29,-4.57 -0.55,-6.41 0.04,-12.82 0.12,-19.23 0.04,-2.92 0.16,-5.83 0.23,-8.75 0.01,-0.49 0.04,-0.97 0.27,-1.41 0.16,-0.3 0.37,-0.54 0.73,-0.56 0.38,-0.03 0.65,0.17 0.83,0.49 0.22,0.37 0.32,0.77 0.33,1.21 0.1,3.87 0.2,7.73 0.31,11.6 -0.01,0 -0.01,0 0,0 z"
       id="path1836" /><path
       class="st0"
       d="m 1058.39,274.54 c 0.09,-4.2 0.18,-8.08 0.27,-11.97 0.01,-0.44 0.13,-0.84 0.36,-1.2 0.35,-0.53 0.99,-0.57 1.38,-0.07 0.27,0.35 0.41,0.76 0.42,1.23 0.15,5.58 0.23,11.17 0.48,16.74 0.2,4.34 -0.21,8.65 -0.45,12.96 -0.02,0.29 -0.03,0.58 -0.05,0.87 -0.03,0.68 -0.57,1.32 -1.11,1.32 -0.45,0 -0.85,-0.52 -0.9,-1.23 -0.14,-2.12 -0.22,-4.25 -0.41,-6.36 -0.36,-4.19 -0.01,-8.4 0.01,-12.29 z"
       id="path1838" /><path
       class="st0"
       d="m 1057.7,282.77 c 0.23,1.96 -0.15,4.1 -0.33,6.26 -0.12,1.36 -0.25,2.73 -0.4,4.09 -0.08,0.8 -0.44,1.32 -0.88,1.32 -0.44,0 -0.76,-0.58 -0.81,-1.41 -0.17,-2.6 -0.38,-5.2 -0.52,-7.8 -0.1,-1.97 0.07,-3.94 0.11,-5.91 0.08,-4.31 0.19,-8.62 0.29,-12.92 0.01,-0.46 0.02,-0.93 0.25,-1.35 0.17,-0.31 0.42,-0.58 0.81,-0.53 0.4,0.06 0.6,0.35 0.68,0.75 0.12,0.67 0.13,1.34 0.15,2.02 0.21,5.08 0.43,10.17 0.65,15.48 z"
       id="path1840" /><path
       class="st0"
       d="m 1047.73,276.73 c 0.1,-4.58 0.17,-7.94 0.24,-11.31 0.01,-0.45 0.04,-0.89 0.21,-1.31 0.14,-0.35 0.39,-0.59 0.78,-0.56 0.39,0.03 0.57,0.32 0.64,0.7 0.23,1.28 0.15,2.58 0.2,3.87 0.22,5.21 0.42,10.42 0.61,15.64 0.06,1.68 -0.23,3.35 -0.35,5.02 -0.1,1.35 -0.23,2.69 -0.35,4.04 -0.04,0.4 -0.05,0.81 -0.28,1.17 -0.14,0.22 -0.29,0.42 -0.57,0.42 -0.3,0 -0.46,-0.23 -0.59,-0.48 -0.16,-0.32 -0.19,-0.66 -0.21,-1.01 -0.42,-5.78 -0.66,-11.59 -0.33,-16.19 z"
       id="path1842" /><path
       class="st0"
       d="m 1051.39,275.42 c 0.08,-3.32 0.15,-6.65 0.23,-9.97 0.01,-0.41 0.08,-0.81 0.3,-1.16 0.16,-0.26 0.4,-0.42 0.71,-0.38 0.28,0.04 0.46,0.23 0.55,0.52 0.08,0.26 0.13,0.52 0.14,0.79 0.16,4.15 0.32,8.3 0.48,12.45 0.08,2.03 0.2,4.05 0.24,6.08 0.04,2.07 -0.31,4.12 -0.46,6.18 -0.07,0.98 -0.17,1.96 -0.26,2.94 -0.03,0.41 -0.06,0.81 -0.29,1.17 -0.35,0.55 -0.84,0.52 -1.13,-0.07 -0.13,-0.26 -0.17,-0.55 -0.2,-0.84 -0.43,-5.36 -0.62,-10.72 -0.37,-16.1 0.02,-0.54 0,-1.08 0,-1.62 0.03,0.01 0.05,0.01 0.06,0.01 z"
       id="path1844" /><path
       class="st0"
       d="m 1046.56,275.48 c -0.02,2.22 0.32,5.17 0.21,8.12 -0.13,3.24 -0.38,6.48 -0.57,9.72 0,0.02 0,0.04 0,0.06 -0.06,0.53 -0.47,1.07 -0.81,1.06 -0.34,0 -0.71,-0.52 -0.74,-1.11 -0.09,-1.54 -0.13,-3.09 -0.25,-4.63 -0.58,-7.55 0.05,-15.1 0.12,-22.65 0,-0.42 0.03,-0.86 0.21,-1.24 0.16,-0.32 0.37,-0.59 0.78,-0.56 0.4,0.03 0.53,0.34 0.62,0.65 0.07,0.23 0.08,0.49 0.09,0.74 0.11,3.04 0.21,6.07 0.34,9.84 z"
       id="path1846" /><path
       class="st0"
       d="m 1043.12,281.31 c 0.25,2.73 -0.29,6.08 -0.46,9.45 -0.04,0.83 -0.11,1.66 -0.18,2.48 -0.02,0.19 -0.04,0.39 -0.1,0.56 -0.1,0.27 -0.26,0.54 -0.59,0.53 -0.3,-0.01 -0.45,-0.23 -0.57,-0.49 -0.1,-0.2 -0.13,-0.4 -0.15,-0.61 -0.19,-3.06 -0.42,-6.13 -0.55,-9.19 -0.11,-2.65 0.15,-5.29 0.22,-7.94 0.08,-2.95 0.22,-5.91 0.32,-8.86 0.01,-0.4 0.09,-0.77 0.3,-1.1 0.25,-0.39 0.6,-0.38 0.86,0.01 0.26,0.39 0.27,0.84 0.29,1.28 0.13,2.99 0.24,5.98 0.37,8.98 0.06,1.42 0.14,2.83 0.24,4.9 z"
       id="path1848" /><path
       class="st0"
       d="m 1037.34,278.76 c 0.13,-3.13 0.23,-5.66 0.34,-8.19 0.01,-0.21 0.01,-0.43 0.06,-0.63 0.1,-0.39 0.26,-0.8 0.72,-0.75 0.43,0.04 0.6,0.42 0.63,0.84 0.05,0.58 0.09,1.16 0.12,1.73 0.19,4.05 0.39,8.1 0.57,12.16 0.06,1.26 -0.12,2.51 -0.21,3.76 -0.15,1.89 -0.3,3.77 -0.45,5.66 -0.02,0.21 -0.04,0.42 -0.14,0.61 -0.12,0.24 -0.3,0.41 -0.57,0.39 -0.25,-0.02 -0.43,-0.16 -0.55,-0.43 -0.33,-0.79 -0.21,-1.64 -0.28,-2.45 -0.19,-2.1 -0.34,-4.2 -0.44,-6.3 -0.1,-2.34 0.22,-4.67 0.2,-6.4 z"
       id="path1850" /><path
       class="st0"
       d="m 1032.9,284.1 c -0.16,1.9 -0.33,3.86 -0.49,5.83 -0.09,1.1 -0.17,2.2 -0.26,3.29 0,0.04 0,0.08 -0.01,0.12 -0.03,0.35 -0.05,0.79 -0.47,0.8 -0.42,0.02 -0.48,-0.42 -0.52,-0.77 -0.12,-1.33 -0.23,-2.65 -0.35,-3.98 -0.12,-1.37 -0.21,-2.73 -0.37,-4.1 -0.16,-1.42 0.1,-2.81 0.22,-4.22 0.15,-1.89 0.35,-3.77 0.54,-5.65 0.03,-0.29 0.11,-0.57 0.19,-0.84 0.04,-0.15 0.16,-0.28 0.33,-0.26 0.14,0.02 0.23,0.12 0.27,0.26 0.05,0.21 0.13,0.41 0.14,0.62 0.16,2.89 0.51,5.77 0.77,8.66 0,0.07 0,0.12 0.01,0.24 z"
       id="path1852" /><path
       class="st0"
       d="m 1036.27,284.45 c -0.16,1.83 -0.32,3.63 -0.48,5.44 -0.1,1.11 -0.19,2.23 -0.28,3.34 -0.01,0.1 0,0.2 -0.01,0.29 -0.05,0.29 -0.11,0.63 -0.46,0.62 -0.32,-0.01 -0.46,-0.32 -0.5,-0.61 -0.07,-0.57 -0.11,-1.15 -0.17,-1.73 -0.19,-2.11 -0.35,-4.23 -0.58,-6.34 -0.13,-1.21 0.1,-2.39 0.2,-3.57 0.16,-1.88 0.36,-3.76 0.53,-5.65 0.03,-0.33 0.11,-0.65 0.21,-0.96 0.06,-0.17 0.18,-0.26 0.34,-0.26 0.18,-0.01 0.26,0.13 0.3,0.29 0.05,0.21 0.12,0.41 0.13,0.62 0.16,2.74 0.48,5.46 0.76,8.18 0.01,0.13 0.01,0.25 0.01,0.34 z"
       id="path1854" /><path
       class="st0"
       d="m 1029.23,284.37 c -0.22,3.03 -0.43,5.98 -0.64,8.92 -0.02,0.29 -0.06,0.64 -0.41,0.67 -0.37,0.03 -0.44,-0.31 -0.46,-0.6 -0.1,-1.11 -0.2,-2.23 -0.29,-3.34 -0.14,-1.81 -0.28,-3.62 -0.4,-5.43 -0.09,-1.2 0.15,-2.39 0.24,-3.58 0.11,-1.62 0.33,-3.23 0.4,-4.85 0.01,-0.29 0.06,-0.58 0.12,-0.86 0.05,-0.25 0.07,-0.62 0.4,-0.6 0.3,0.02 0.35,0.38 0.37,0.64 0.06,1.02 0.11,2.04 0.22,3.06 0.19,1.86 0.31,3.73 0.46,5.6 0,0.15 -0.01,0.3 -0.01,0.37 z"
       id="path1856" /><path
       class="st0"
       d="m 1023.6,284.3 c 0.19,-1.74 0.37,-3.52 0.59,-5.3 0.09,-0.71 0.05,-1.43 0.23,-2.13 0.06,-0.24 0.08,-0.56 0.38,-0.56 0.3,0.01 0.34,0.34 0.36,0.58 0.07,0.65 0.11,1.31 0.16,1.96 0.16,1.98 0.61,3.94 0.5,5.93 -0.13,2.37 -0.4,4.73 -0.62,7.09 -0.03,0.28 -0.09,0.59 -0.4,0.62 -0.37,0.03 -0.45,-0.3 -0.48,-0.59 -0.08,-0.63 -0.12,-1.27 -0.18,-1.9 -0.18,-1.88 -0.35,-3.76 -0.54,-5.7 z"
       id="path1858" /><path
       class="st0"
       d="m 1022.5,284.5 c -0.18,1.5 -0.38,3.11 -0.58,4.72 -0.03,0.2 -0.12,0.39 -0.35,0.38 -0.22,-0.01 -0.35,-0.17 -0.38,-0.37 -0.07,-0.38 -0.1,-0.76 -0.15,-1.15 -0.11,-0.88 -0.18,-1.77 -0.34,-2.64 -0.25,-1.37 0.13,-2.68 0.27,-4.02 0.07,-0.63 0.17,-1.26 0.28,-1.89 0.03,-0.19 0.13,-0.39 0.38,-0.35 0.2,0.03 0.27,0.21 0.29,0.39 0.2,1.53 0.4,3.06 0.59,4.59 0,0.07 -0.01,0.15 -0.01,0.34 z"
       id="path1860" /></g></g></svg>
