<?xml version="1.0" encoding="UTF-8" standalone="no"?>
<!-- Generator: Adobe Illustrator 25.1.0, SVG Export Plug-In . SVG Version: 6.00 Build 0)  -->

<svg
   version="1.1"
   id="Layer_1"
   x="0px"
   y="0px"
   viewBox="0 0 141.00001 140.99999"
   xml:space="preserve"
   sodipodi:docname="Spotify_Black_circle_v2.svg"
   inkscape:version="1.1.2 (b8e25be833, 2022-02-05)"
   width="141"
   height="141"
   xmlns:inkscape="http://www.inkscape.org/namespaces/inkscape"
   xmlns:sodipodi="http://sodipodi.sourceforge.net/DTD/sodipodi-0.dtd"
   xmlns="http://www.w3.org/2000/svg"
   xmlns:svg="http://www.w3.org/2000/svg"><defs
   id="defs433" /><sodipodi:namedview
   id="namedview431"
   pagecolor="#505050"
   bordercolor="#eeeeee"
   borderopacity="1"
   inkscape:pageshadow="0"
   inkscape:pageopacity="0"
   inkscape:pagecheckerboard="0"
   showgrid="false"
   inkscape:zoom="0.732933"
   inkscape:cx="52.528676"
   inkscape:cy="230.58042"
   inkscape:window-width="1920"
   inkscape:window-height="1017"
   inkscape:window-x="-8"
   inkscape:window-y="-8"
   inkscape:window-maximized="1"
   inkscape:current-layer="Layer_1"
   width="300px" />
<style
   type="text/css"
   id="style222">
	.st0{fill:#FFFFFF;}
</style>

<g
   id="g1870"
   transform="translate(-831.63998,-205.98999)"><circle
     cx="901.04999"
     cy="275.39999"
     r="69.410004"
     id="circle1866" /><path
     class="st0"
     d="m 943.73,274.05 c 0,0.9 0,1.79 0,2.69 -0.25,7.3 -2.17,14.13 -5.94,20.4 -5.75,9.55 -13.99,15.96 -24.65,19.21 -3.46,1.06 -7.02,1.6 -10.64,1.71 -0.95,0 -1.91,0 -2.86,0 -11.95,-0.52 -22.02,-5.16 -30.12,-13.93 -5.51,-5.97 -8.95,-13.02 -10.43,-21.02 -0.74,-4.01 -0.96,-8.06 -0.46,-12.11 1.78,-14.57 9.07,-25.55 21.76,-32.91 4.45,-2.58 9.27,-4.2 14.37,-4.89 13.3,-1.78 25.06,1.7 35.06,10.68 7,6.29 11.34,14.17 13.17,23.41 0.43,2.23 0.66,4.49 0.74,6.76 z M 881.1,256.42 c -2.34,0.4 -4.67,0.89 -6.93,1.66 -1.81,0.62 -2.85,2.5 -2.53,4.43 0.31,1.83 1.97,3.24 3.85,3.27 0.76,0.01 1.45,-0.24 2.16,-0.43 5.14,-1.4 10.38,-1.96 15.69,-2.07 4.73,-0.09 9.44,0.23 14.11,0.97 4.05,0.64 8.01,1.6 11.86,3.01 2.39,0.88 4.7,1.94 6.91,3.22 1.58,0.92 3.29,0.81 4.61,-0.24 2.24,-1.78 1.97,-5.14 -0.54,-6.62 -3.95,-2.33 -8.18,-4.01 -12.58,-5.27 -7.27,-2.07 -14.71,-3 -22.26,-3.06 -4.81,-0.03 -9.6,0.31 -14.35,1.13 z m 5.93,13.94 c -3.45,0.38 -6.85,1.04 -10.17,2.04 -1.3,0.39 -2.11,1.3 -2.34,2.63 -0.22,1.27 0.2,2.35 1.2,3.15 1,0.8 2.12,0.87 3.32,0.51 3.83,-1.15 7.76,-1.75 11.75,-1.96 4.45,-0.23 8.88,0.04 13.28,0.81 6.11,1.07 11.9,2.99 17.24,6.2 1.63,0.98 3.65,0.45 4.58,-1.14 0.94,-1.6 0.43,-3.59 -1.19,-4.58 -2.95,-1.8 -6.07,-3.25 -9.33,-4.41 -6.94,-2.47 -14.11,-3.6 -21.58,-3.64 -2.18,0.04 -4.47,0.14 -6.76,0.39 z m 1.06,13.88 c -3.3,0.32 -6.56,0.89 -9.79,1.62 -1.43,0.33 -2.3,1.73 -1.99,3.14 0.32,1.45 1.67,2.35 3.14,2.04 3.02,-0.65 6.06,-1.21 9.14,-1.51 3.72,-0.36 7.45,-0.41 11.18,-0.03 3.18,0.33 6.29,0.97 9.32,1.98 2.73,0.91 5.32,2.1 7.78,3.6 0.62,0.38 1.28,0.55 1.99,0.41 1.12,-0.22 1.93,-1.05 2.13,-2.14 0.2,-1.12 -0.26,-2.15 -1.28,-2.77 -2.4,-1.47 -4.92,-2.69 -7.56,-3.67 -5.72,-2.12 -11.64,-3.02 -18.73,-3.01 -1.11,0.01 -3.22,0.14 -5.33,0.34 z"
     id="path1868" /></g></svg>
