<?xml version="1.0" encoding="UTF-8" standalone="no"?>
<!-- Generator: Adobe Illustrator 25.1.0, SVG Export Plug-In . SVG Version: 6.00 Build 0)  -->

<svg
   version="1.1"
   id="Layer_1"
   x="0px"
   y="0px"
   viewBox="0 0 141.00001 140.99999"
   xml:space="preserve"
   sodipodi:docname="Tiktok_Black_circle_v2.svg"
   inkscape:version="1.1.2 (b8e25be833, 2022-02-05)"
   width="141"
   height="141"
   xmlns:inkscape="http://www.inkscape.org/namespaces/inkscape"
   xmlns:sodipodi="http://sodipodi.sourceforge.net/DTD/sodipodi-0.dtd"
   xmlns="http://www.w3.org/2000/svg"
   xmlns:svg="http://www.w3.org/2000/svg"><defs
   id="defs433" /><sodipodi:namedview
   id="namedview431"
   pagecolor="#505050"
   bordercolor="#eeeeee"
   borderopacity="1"
   inkscape:pageshadow="0"
   inkscape:pageopacity="0"
   inkscape:pagecheckerboard="0"
   showgrid="false"
   inkscape:zoom="0.732933"
   inkscape:cx="52.528676"
   inkscape:cy="230.58042"
   inkscape:window-width="1920"
   inkscape:window-height="1017"
   inkscape:window-x="-8"
   inkscape:window-y="-8"
   inkscape:window-maximized="1"
   inkscape:current-layer="Layer_1"
   width="300px" />
<style
   type="text/css"
   id="style222">
	.st0{fill:#FFFFFF;}
</style>

<g
   id="g1974"
   transform="translate(-667.31998,-387.19)"><circle
     cx="736.72998"
     cy="456.60001"
     r="69.410004"
     id="circle1970" /><path
     class="st0"
     d="m 771.37,436.19 c 0,-0.36 -0.13,-0.45 -0.47,-0.47 -0.72,-0.03 -1.45,-0.06 -2.16,-0.17 -9.02,-1.35 -15.67,-8.99 -15.73,-18.09 0,-0.6 -0.17,-0.73 -0.74,-0.72 -3.61,0.03 -7.22,0.01 -10.83,0.02 -0.84,0 -1.69,0.03 -2.53,0.05 -0.21,0.18 -0.1,0.42 -0.1,0.63 -0.01,14.04 -0.02,28.08 -0.01,42.12 0,1.28 -0.17,2.58 0.09,3.86 -0.03,0.12 -0.09,0.24 -0.09,0.35 0,2.29 -0.05,4.59 0.03,6.88 0.18,5.16 -3.26,9.88 -8.3,11.25 -5.05,1.38 -10.51,-0.95 -12.88,-5.58 -2.19,-4.3 -1.72,-8.41 1.07,-12.3 0.19,-0.08 0.25,-0.27 0.33,-0.43 0.2,-0.1 0.33,-0.26 0.42,-0.46 v 0 c 0.2,-0.1 0.39,-0.22 0.48,-0.44 0,0 0,0 0,0 0,0 0,0 0,0 3.18,-2.7 6.8,-3.55 10.84,-2.49 0.03,-0.09 0.06,-0.14 0.06,-0.18 0,-4.58 0,-9.17 0.01,-13.75 0,-0.39 -0.13,-0.5 -0.51,-0.54 -2.59,-0.27 -5.17,-0.17 -7.73,0.33 -13.44,2.64 -22.47,15.68 -20.17,29.14 2.28,13.31 14.21,22.57 27.68,21.08 10.73,-1.18 17.91,-7.21 21.61,-17.33 1.79,-4.9 1.23,-10.03 1.22,-15.09 0,0 0,0 0,0 v 0 c 0,-0.05 -0.01,-0.1 -0.01,-0.15 0.08,-0.9 0.05,-1.79 0.01,-2.69 0.03,-0.36 0.16,-0.72 0.02,-1.09 0,0 0,0 0,0 0,-5.7 0,-11.4 0,-17.26 0.25,0.19 0.33,0.25 0.4,0.31 5.07,4.03 10.91,5.93 17.32,6.22 0.33,0.01 0.68,0.13 0.68,-0.46 -0.03,-4.18 -0.03,-8.36 -0.01,-12.55 z"
     id="path1972" /></g></svg>
