<?xml version="1.0" encoding="UTF-8" standalone="no"?>
<!-- Generator: Adobe Illustrator 25.1.0, SVG Export Plug-In . SVG Version: 6.00 Build 0)  -->

<svg
   version="1.1"
   id="Layer_1"
   x="0px"
   y="0px"
   viewBox="0 0 141.00001 140.99999"
   xml:space="preserve"
   sodipodi:docname="Tumbler_Black_circle_v2.svg"
   inkscape:version="1.1.2 (b8e25be833, 2022-02-05)"
   width="141"
   height="141"
   xmlns:inkscape="http://www.inkscape.org/namespaces/inkscape"
   xmlns:sodipodi="http://sodipodi.sourceforge.net/DTD/sodipodi-0.dtd"
   xmlns="http://www.w3.org/2000/svg"
   xmlns:svg="http://www.w3.org/2000/svg"><defs
   id="defs433" /><sodipodi:namedview
   id="namedview431"
   pagecolor="#505050"
   bordercolor="#eeeeee"
   borderopacity="1"
   inkscape:pageshadow="0"
   inkscape:pageopacity="0"
   inkscape:pagecheckerboard="0"
   showgrid="false"
   inkscape:zoom="0.732933"
   inkscape:cx="52.528676"
   inkscape:cy="230.58042"
   inkscape:window-width="1920"
   inkscape:window-height="1017"
   inkscape:window-x="-8"
   inkscape:window-y="-8"
   inkscape:window-maximized="1"
   inkscape:current-layer="Layer_1"
   width="300px" />
<style
   type="text/css"
   id="style222">
	.st0{fill:#FFFFFF;}
</style>

<g
   id="g1962"
   transform="translate(-831.63998,-24.789993)"><circle
     cx="901.04999"
     cy="94.199997"
     r="69.410004"
     id="circle1958" /><path
     class="st0"
     d="m 906.1,99.8 c 0,3.88 0,7.77 0,11.65 0,1.46 0.18,2.88 0.75,4.23 0.88,2.08 2.46,3.29 4.65,3.73 1.51,0.31 3.01,0.21 4.51,-0.02 1.36,-0.21 2.7,-0.51 3.98,-1.03 0.33,-0.14 0.34,-0.13 0.46,0.21 0.43,1.28 0.86,2.57 1.3,3.85 0.77,2.28 1.53,4.55 2.32,6.82 0.12,0.35 0.06,0.57 -0.19,0.82 -0.82,0.82 -1.8,1.37 -2.83,1.85 -2.59,1.21 -5.32,1.92 -8.15,2.27 -3.04,0.38 -6.08,0.26 -9.08,-0.33 -4.77,-0.94 -8.91,-3.06 -12.19,-6.7 -2.53,-2.8 -4.16,-6.07 -5,-9.74 -0.37,-1.61 -0.52,-3.25 -0.52,-4.9 0.01,-8.4 0,-16.8 0,-25.2 0,-0.76 0.09,-0.65 -0.66,-0.65 -2.29,0 -4.57,0 -6.86,0 -0.14,0 -0.28,0 -0.41,0 -0.15,0 -0.21,-0.08 -0.21,-0.22 0,-0.1 0,-0.21 0,-0.31 0,-3.11 0,-6.22 0,-9.33 0,-0.6 -0.07,-0.48 0.47,-0.69 2.17,-0.85 4.21,-1.94 6.05,-3.37 2.71,-2.1 4.79,-4.71 6.33,-7.76 1.37,-2.7 2.24,-5.56 2.72,-8.55 0.08,-0.51 0.15,-1.02 0.22,-1.53 0.09,-0.71 0.24,-0.85 0.95,-0.85 3.64,0 7.29,0 10.93,0 0.55,0 0.5,-0.06 0.5,0.49 0,6.44 0,12.89 0,19.33 0,0.71 -0.11,0.62 0.63,0.62 4.97,0 9.94,0 14.9,0 0.59,0 0.55,-0.09 0.55,0.55 0,3.69 0,7.39 0,11.08 0,0.05 0,0.1 0,0.15 -0.01,0.38 -0.01,0.38 -0.4,0.38 -2.1,0 -4.19,0 -6.29,0 -2.92,0 -5.85,0 -8.77,0 -0.12,0 -0.24,0.01 -0.36,0 -0.27,-0.03 -0.33,0.1 -0.31,0.33 0.01,0.12 0,0.24 0,0.36 0.01,4.15 0.01,8.3 0.01,12.46 z"
     id="path1960" /></g></svg>
