<?xml version="1.0" encoding="UTF-8" standalone="no"?>
<!-- Generator: Adobe Illustrator 25.1.0, SVG Export Plug-In . SVG Version: 6.00 Build 0)  -->

<svg
   version="1.1"
   id="Layer_1"
   x="0px"
   y="0px"
   viewBox="0 0 141.00001 140.99999"
   xml:space="preserve"
   sodipodi:docname="Twitch_Black_circle_v2.svg"
   inkscape:version="1.1.2 (b8e25be833, 2022-02-05)"
   width="141"
   height="141"
   xmlns:inkscape="http://www.inkscape.org/namespaces/inkscape"
   xmlns:sodipodi="http://sodipodi.sourceforge.net/DTD/sodipodi-0.dtd"
   xmlns="http://www.w3.org/2000/svg"
   xmlns:svg="http://www.w3.org/2000/svg"><defs
   id="defs433" /><sodipodi:namedview
   id="namedview431"
   pagecolor="#505050"
   bordercolor="#eeeeee"
   borderopacity="1"
   inkscape:pageshadow="0"
   inkscape:pageopacity="0"
   inkscape:pagecheckerboard="0"
   showgrid="false"
   inkscape:zoom="0.732933"
   inkscape:cx="52.528676"
   inkscape:cy="230.58042"
   inkscape:window-width="1920"
   inkscape:window-height="1017"
   inkscape:window-x="-8"
   inkscape:window-y="-8"
   inkscape:window-maximized="1"
   inkscape:current-layer="Layer_1"
   width="300px" />
<style
   type="text/css"
   id="style222">
	.st0{fill:#FFFFFF;}
</style>

<g
   id="g1894"
   transform="translate(-347.38,-205.98999)"><circle
     cx="416.79001"
     cy="275.39999"
     r="69.410004"
     id="circle1884" /><g
     id="g1892"><path
       class="st0"
       d="m 382.83,301.85 c 0,-16.31 0,-32.62 0,-48.93 0.5,-3.8 1.99,-7.31 3.16,-10.92 0.45,-1.4 0.71,-1.55 2.2,-1.55 20.48,0 40.96,0 61.44,-0.02 0.87,0 1.11,0.21 1.1,1.09 -0.03,13.39 -0.02,26.78 -0.02,40.16 0,1.22 -0.35,2.22 -1.26,3.11 -5.46,5.41 -10.88,10.84 -16.3,16.3 -0.92,0.92 -1.91,1.34 -3.2,1.32 -2.91,-0.04 -5.82,0.04 -8.73,-0.03 -1.56,-0.04 -2.74,0.47 -3.81,1.6 -1.73,1.83 -3.55,3.58 -5.34,5.36 -0.6,0.6 -1.27,1.01 -2.15,1 -3.37,-0.03 -6.75,0.07 -10.12,-0.05 -0.59,-0.33 -0.51,-0.92 -0.53,-1.44 -0.05,-1.47 -0.01,-2.94 -0.03,-4.42 -0.02,-1.69 -0.35,-2.02 -2.07,-2.03 -4.14,-0.02 -8.29,0.01 -12.43,-0.02 -0.66,0.02 -1.4,0.11 -1.91,-0.53 z m 33.02,-9.65 c 0.59,-0.6 1.23,-0.84 2.07,-0.84 4.89,0.02 9.78,-0.01 14.66,0.01 0.76,0 1.33,-0.27 1.85,-0.79 3.01,-3.02 6.04,-6.03 9.08,-9.03 0.54,-0.53 0.77,-1.1 0.77,-1.86 -0.02,-10.6 -0.02,-21.19 0.01,-31.79 0,-0.82 -0.23,-1.04 -1.04,-1.04 -16.29,0.02 -32.59,0.02 -48.88,0 -0.83,0 -1.03,0.26 -1.03,1.06 0.02,14.13 0.02,28.25 0,42.38 0,0.85 0.19,1.13 1.09,1.12 4.27,-0.05 8.54,0 12.8,-0.04 0.83,-0.01 1.04,0.25 1.03,1.05 -0.05,2.36 -0.02,4.72 -0.02,7.46 2.7,-2.74 5.17,-5.2 7.61,-7.69 z"
       id="path1886" /><path
       class="st0"
       d="m 410.36,269.04 c 0,-2.79 0.02,-5.59 -0.02,-8.38 -0.01,-0.75 0.19,-1.03 0.97,-0.99 1.47,0.06 2.95,0.05 4.42,0 0.69,-0.02 0.95,0.15 0.94,0.9 -0.03,5.7 -0.02,11.41 0,17.11 0,0.64 -0.16,0.89 -0.84,0.87 -1.55,-0.04 -3.1,-0.04 -4.65,0 -0.7,0.02 -0.83,-0.28 -0.83,-0.89 0.02,-2.88 0.01,-5.75 0.01,-8.62 z"
       id="path1888" /><path
       class="st0"
       d="m 433.56,269.23 c 0,2.76 -0.04,5.51 0.02,8.26 0.02,0.9 -0.27,1.12 -1.12,1.08 -1.39,-0.07 -2.79,-0.05 -4.19,-0.01 -0.67,0.02 -0.95,-0.12 -0.95,-0.88 0.03,-5.7 0.03,-11.41 0,-17.11 0,-0.73 0.24,-0.93 0.93,-0.91 1.47,0.04 2.95,0.05 4.42,0 0.76,-0.03 0.9,0.28 0.89,0.95 -0.02,2.88 0,5.75 0,8.62 z"
       id="path1890" /></g></g></svg>
