<?xml version="1.0" encoding="UTF-8" standalone="no"?>
<!-- Generator: Adobe Illustrator 25.1.0, SVG Export Plug-In . SVG Version: 6.00 Build 0)  -->

<svg
   version="1.1"
   id="Layer_1"
   x="0px"
   y="0px"
   viewBox="0 0 141.00001 140.99999"
   xml:space="preserve"
   sodipodi:docname="Twitter_Black_circle_v2.svg"
   inkscape:version="1.1.2 (b8e25be833, 2022-02-05)"
   width="141"
   height="141"
   xmlns:inkscape="http://www.inkscape.org/namespaces/inkscape"
   xmlns:sodipodi="http://sodipodi.sourceforge.net/DTD/sodipodi-0.dtd"
   xmlns="http://www.w3.org/2000/svg"
   xmlns:svg="http://www.w3.org/2000/svg"><defs
   id="defs433" /><sodipodi:namedview
   id="namedview431"
   pagecolor="#505050"
   bordercolor="#eeeeee"
   borderopacity="1"
   inkscape:pageshadow="0"
   inkscape:pageopacity="0"
   inkscape:pagecheckerboard="0"
   showgrid="false"
   inkscape:zoom="0.732933"
   inkscape:cx="52.528676"
   inkscape:cy="230.58042"
   inkscape:window-width="1920"
   inkscape:window-height="1017"
   inkscape:window-x="1912"
   inkscape:window-y="-8"
   inkscape:window-maximized="1"
   inkscape:current-layer="Layer_1"
   width="300px" />
<style
   type="text/css"
   id="style222">
	.st0{fill:#FFFFFF;}
</style>

<circle
   cx="-69.510002"
   cy="69.510002"
   r="69.410004"
   id="circle312"
   transform="scale(-1,1)" /><path
   class="st0"
   d="m 110.55002,95.11001 c 0,0 -19.469996,1.6 -24.019996,-6.85 0,0 10.61,-0.22 15.159996,-12.13 0,0 -5.629996,1.3 -7.799996,1.08 0,0 15.809996,-7.36 13.429996,-17.98 0,0 -5.63,2.6 -7.359996,1.95 0,0 12.349996,-7.58 5.199996,-22.74 0,0 -11.699996,16.03 -34.659997,17.76 0,0 1.08,-17.54 -12.129999,-20.58 -13.21,-3.03 -17.760005,5.2 -17.760005,5.2 0,0 -7.149995,-2.17 -10.829995,-3.9 0,0 4.98,7.58 6.71,9.1 0,0 -6.5,-1.73 -8.01,-2.82 0,0 2.82,5.2 7.58,9.31 0,0 -3.46,25.25 19.99,42.71 23.449999,17.46 49.889996,4.469999 54.499996,-0.11 z"
   id="path314"
   style="fill:#ffffff" /></svg>
