<?xml version="1.0" encoding="UTF-8" standalone="no"?>
<!-- Generator: Adobe Illustrator 25.1.0, SVG Export Plug-In . SVG Version: 6.00 Build 0)  -->

<svg
   version="1.1"
   id="Layer_1"
   x="0px"
   y="0px"
   viewBox="0 0 141.00001 140.99999"
   xml:space="preserve"
   sodipodi:docname="Vimeo_Black_circle_v2.svg"
   inkscape:version="1.1.2 (b8e25be833, 2022-02-05)"
   width="141"
   height="141"
   xmlns:inkscape="http://www.inkscape.org/namespaces/inkscape"
   xmlns:sodipodi="http://sodipodi.sourceforge.net/DTD/sodipodi-0.dtd"
   xmlns="http://www.w3.org/2000/svg"
   xmlns:svg="http://www.w3.org/2000/svg"><defs
   id="defs433" /><sodipodi:namedview
   id="namedview431"
   pagecolor="#505050"
   bordercolor="#eeeeee"
   borderopacity="1"
   inkscape:pageshadow="0"
   inkscape:pageopacity="0"
   inkscape:pagecheckerboard="0"
   showgrid="false"
   inkscape:zoom="0.732933"
   inkscape:cx="52.528676"
   inkscape:cy="230.58042"
   inkscape:window-width="1920"
   inkscape:window-height="1017"
   inkscape:window-x="-8"
   inkscape:window-y="-8"
   inkscape:window-maximized="1"
   inkscape:current-layer="Layer_1"
   width="300px" />
<style
   type="text/css"
   id="style222">
	.st0{fill:#FFFFFF;}
</style>

<g
   id="g1996"
   transform="translate(-345.63998,-387.19)"><circle
     cx="415.04999"
     cy="456.60001"
     r="69.410004"
     id="circle1992" /><path
     class="st0"
     d="m 445.59,420.92 c 1.43,0.64 3.04,0.69 4.43,1.48 4.37,2.52 5.56,6.67 5.94,11.28 0.52,6.39 -1.33,12.24 -4.31,17.73 -7.13,13.15 -15.85,25.11 -27.31,34.87 -3.26,2.78 -6.92,4.9 -11.26,5.77 -4.09,0.82 -7.08,-0.76 -9.51,-3.79 -3.22,-4.01 -4.87,-8.74 -6.2,-13.64 -2.29,-8.45 -4.32,-16.98 -7.12,-25.28 -0.78,-2.31 -1.73,-4.55 -3.31,-6.44 -1.57,-1.88 -2.72,-2.06 -4.78,-0.81 -1.22,0.74 -2.4,1.53 -3.56,2.36 -0.7,0.5 -1.16,0.59 -1.72,-0.23 -0.94,-1.37 -2.73,-2.61 -2.81,-3.98 -0.09,-1.45 2.06,-2.35 3.28,-3.43 4.75,-4.23 9.26,-8.75 14.58,-12.29 1.93,-1.28 3.93,-2.47 6.33,-2.61 4.86,-0.29 8.37,2.39 10.15,7.74 1.37,4.13 1.78,8.45 2.53,12.71 1.18,6.76 2.14,13.58 4.65,20.03 1.89,4.88 4.08,5.3 7.36,1.3 3.59,-4.38 6.54,-9.17 8.6,-14.47 0.69,-1.79 1,-3.66 0.84,-5.58 -0.23,-2.77 -1.94,-4.39 -4.73,-4.57 -2.28,-0.14 -4.45,0.35 -6.63,1.14 1.75,-8.04 8.13,-17.35 16.98,-18.68 0.5,-0.07 1.22,0.06 1.54,-0.61 0.36,0 0.71,0 1.07,0 1.55,0.3 3.1,0.3 4.64,0 0.09,0 0.21,0 0.33,0 z"
     id="path1994" /></g></svg>
