<?xml version="1.0" encoding="UTF-8" standalone="no"?>
<!-- Generator: Adobe Illustrator 25.1.0, SVG Export Plug-In . SVG Version: 6.00 Build 0)  -->

<svg
   version="1.1"
   id="Layer_1"
   x="0px"
   y="0px"
   viewBox="0 0 141.00001 140.99999"
   xml:space="preserve"
   sodipodi:docname="Whatsapp_Black_circle_v2.svg"
   inkscape:version="1.1.2 (b8e25be833, 2022-02-05)"
   width="141"
   height="141"
   xmlns:inkscape="http://www.inkscape.org/namespaces/inkscape"
   xmlns:sodipodi="http://sodipodi.sourceforge.net/DTD/sodipodi-0.dtd"
   xmlns="http://www.w3.org/2000/svg"
   xmlns:svg="http://www.w3.org/2000/svg"><defs
   id="defs433" /><sodipodi:namedview
   id="namedview431"
   pagecolor="#505050"
   bordercolor="#eeeeee"
   borderopacity="1"
   inkscape:pageshadow="0"
   inkscape:pageopacity="0"
   inkscape:pagecheckerboard="0"
   showgrid="false"
   inkscape:zoom="0.732933"
   inkscape:cx="52.528676"
   inkscape:cy="230.58042"
   inkscape:window-width="1920"
   inkscape:window-height="1017"
   inkscape:window-x="-8"
   inkscape:window-y="-8"
   inkscape:window-maximized="1"
   inkscape:current-layer="Layer_1"
   width="300px" />
<style
   type="text/css"
   id="style222">
	.st0{fill:#FFFFFF;}
</style>

<g
   id="g1990"
   transform="translate(-829.89999,-387.19)"><circle
     cx="899.31"
     cy="456.60001"
     r="69.410004"
     id="circle1982" /><g
     id="g1988"><path
       class="st0"
       d="m 859.01,498.41 c 1.78,-6.34 3.35,-12.2 5.09,-18 0.57,-1.89 0.47,-3.41 -0.48,-5.21 -8.05,-15.25 -7.04,-30.13 3.27,-43.78 9.9,-13.11 23.57,-18.99 39.85,-15.78 17.26,3.4 28.52,14.3 32.54,31.45 5.85,24.94 -13.84,49.43 -39.44,49.7 -5.33,0.06 -10.57,-0.83 -15.46,-3.1 -2.28,-1.06 -4.34,-1.26 -6.86,-0.45 -5.88,1.89 -11.91,3.36 -18.51,5.17 z m 19.28,-11.65 c 2.25,-0.78 4.18,-0.75 6.52,0.35 6.86,3.2 14.12,3.81 21.61,2.43 17.37,-3.2 29.81,-19.33 27.17,-38.61 -2.72,-19.82 -19.59,-31.8 -38.58,-29.33 -27.47,3.57 -37.02,32.7 -24.84,52.74 0.98,1.61 1.4,2.87 0.71,4.76 -1.24,3.43 -2.08,7 -3.29,11.22 3.99,-1.33 7.36,-2.4 10.7,-3.56 z"
       id="path1984" /><path
       class="st0"
       d="m 909.59,475.69 c -9.31,-1.15 -16.82,-5.67 -22.95,-12.63 -3.88,-4.4 -7.87,-8.77 -8.53,-15.04 -0.42,-3.98 0.9,-7.26 3.82,-9.89 2.58,-2.32 5.45,-1.71 6.93,1.41 0.74,1.55 1.25,3.22 2.06,4.73 1.3,2.44 1.16,4.67 -0.88,6.54 -1.78,1.64 -1.28,3.09 -0.18,4.82 2.89,4.52 6.96,7.57 11.63,10 2.35,1.22 4.04,0.68 5.07,-1.56 1.52,-3.31 3.67,-3.6 6.55,-1.84 0.97,0.59 2.07,0.98 3.1,1.5 4.25,2.16 4.7,6.01 1.03,9.18 -2.18,1.87 -4.64,2.98 -7.65,2.78 z"
       id="path1986" /></g></g></svg>
