<?xml version="1.0" encoding="UTF-8" standalone="no"?>
<!-- Generator: Adobe Illustrator 25.1.0, SVG Export Plug-In . SVG Version: 6.00 Build 0)  -->

<svg
   version="1.1"
   id="Layer_1"
   x="0px"
   y="0px"
   viewBox="0 0 141.00001 140.99999"
   xml:space="preserve"
   sodipodi:docname="Youtube_Black_circle_v2.svg"
   inkscape:version="1.1.2 (b8e25be833, 2022-02-05)"
   width="141"
   height="141"
   xmlns:inkscape="http://www.inkscape.org/namespaces/inkscape"
   xmlns:sodipodi="http://sodipodi.sourceforge.net/DTD/sodipodi-0.dtd"
   xmlns="http://www.w3.org/2000/svg"
   xmlns:svg="http://www.w3.org/2000/svg"><defs
   id="defs433" /><sodipodi:namedview
   id="namedview431"
   pagecolor="#505050"
   bordercolor="#eeeeee"
   borderopacity="1"
   inkscape:pageshadow="0"
   inkscape:pageopacity="0"
   inkscape:pagecheckerboard="0"
   showgrid="false"
   inkscape:zoom="0.732933"
   inkscape:cx="52.528676"
   inkscape:cy="230.58042"
   inkscape:window-width="1920"
   inkscape:window-height="1017"
   inkscape:window-x="-8"
   inkscape:window-y="-8"
   inkscape:window-maximized="1"
   inkscape:current-layer="Layer_1"
   width="300px" />
<style
   type="text/css"
   id="style222">
	.st0{fill:#FFFFFF;}
</style>

<g
   id="g1876"
   transform="translate(-669.05997,-205.98999)"><circle
     cx="738.46997"
     cy="275.39999"
     r="69.410004"
     id="circle1872" /><path
     class="st0"
     d="m 747.06,302.48 c -2.25,0 -4.49,0 -6.74,0 -0.05,-0.04 -0.1,-0.03 -0.15,-0.03 -0.87,0.02 -1.74,-0.03 -2.61,-0.03 -1.37,0.01 -2.74,-0.02 -4.12,-0.03 -0.91,-0.01 -1.83,0.03 -2.74,-0.03 -0.98,-0.06 -1.95,0.01 -2.92,-0.05 -0.88,-0.06 -1.76,0.01 -2.64,-0.05 -1.43,-0.09 -2.87,0.01 -4.3,-0.06 -1.12,-0.05 -2.24,0 -3.36,-0.05 -1.12,-0.05 -2.24,-0.07 -3.36,-0.15 -2.01,-0.15 -4.02,-0.37 -5.98,-0.84 -1.86,-0.45 -3.49,-1.34 -4.78,-2.79 -0.95,-1.06 -1.61,-2.3 -2.1,-3.63 -0.6,-1.65 -0.93,-3.35 -1.16,-5.08 -0.16,-1.21 -0.28,-2.43 -0.39,-3.65 -0.07,-0.75 -0.12,-1.49 -0.18,-2.24 -0.1,-1.32 -0.16,-2.63 -0.18,-3.95 -0.01,-0.47 -0.01,-0.95 -0.02,-1.42 -0.04,-1.93 -0.03,-3.87 0,-5.8 -0.01,-1.1 0.01,-2.19 0.06,-3.29 0.05,-1.08 0.13,-2.17 0.23,-3.25 0.09,-0.97 0.17,-1.94 0.28,-2.91 0.11,-0.97 0.22,-1.93 0.36,-2.9 0.16,-1.07 0.29,-2.15 0.52,-3.22 0.36,-1.68 1.02,-3.22 2.13,-4.55 1.19,-1.43 2.72,-2.35 4.49,-2.88 1.04,-0.31 2.11,-0.42 3.19,-0.49 0.92,-0.06 1.84,-0.1 2.76,-0.19 0.33,-0.03 0.65,-0.03 0.98,-0.05 0.82,-0.04 1.63,-0.09 2.45,-0.12 1.21,-0.05 2.41,-0.12 3.62,-0.16 0.83,-0.03 1.65,-0.07 2.48,-0.1 2.14,-0.08 4.28,-0.12 6.42,-0.13 0.38,0 0.76,-0.02 1.14,-0.02 1.7,0.01 3.4,-0.05 5.1,-0.03 2.24,0 4.47,0 6.71,0 0.07,0 0.14,0 0.21,0 2.09,-0.01 4.18,0.03 6.27,0.03 0.92,0 1.85,-0.01 2.77,0.02 0.78,0.03 1.55,-0.02 2.33,0.03 0.7,0.04 1.4,0 2.09,0.05 0.66,0.05 1.31,0.01 1.97,0.05 1.11,0.06 2.22,0.08 3.33,0.1 2.47,0.05 4.92,0.33 7.33,0.89 1.85,0.42 3.47,1.29 4.79,2.67 1.05,1.1 1.78,2.39 2.31,3.8 0.59,1.55 0.92,3.16 1.16,4.79 0.15,1.01 0.26,2.03 0.35,3.06 0.07,0.75 0.12,1.51 0.18,2.27 0.06,0.82 0.11,1.65 0.19,2.47 0.03,0.32 0.02,0.64 0.03,0.96 0.08,2.86 0.07,5.71 0.05,8.57 -0.01,1.07 -0.02,2.14 -0.08,3.21 -0.06,1 -0.14,1.99 -0.24,2.99 -0.11,1.17 -0.23,2.33 -0.38,3.49 -0.28,2.09 -0.55,4.19 -1.14,6.23 -0.43,1.46 -0.99,2.85 -1.91,4.08 -0.97,1.3 -2.23,2.22 -3.75,2.79 -1.04,0.39 -2.12,0.57 -3.23,0.66 -1.07,0.08 -2.15,0.16 -3.22,0.24 -0.63,0.05 -1.26,0.08 -1.88,0.12 -0.95,0.07 -1.91,0.1 -2.86,0.19 -0.33,0.03 -0.65,0.03 -0.98,0.05 -0.81,0.04 -1.62,0.08 -2.43,0.13 -1.82,0.1 -3.64,0.12 -5.45,0.15 -0.57,0.01 -1.14,0.01 -1.71,0.02 -0.43,0.05 -0.86,0 -1.29,0.06 z m -11.37,-54.1 c 1.99,0 3.98,0 5.97,-0.01 0.21,0 0.43,0.02 0.64,-0.01 0,-0.02 0,-0.03 0,-0.05 -2.26,0 -4.53,0 -6.79,0 0,0.02 0,0.03 0,0.05 0.06,0.01 0.12,0.02 0.18,0.02 z m -4.92,15.65 c 0,7.58 0.01,15.16 0.01,22.75 0,0.01 0.01,0.02 0.01,0.02 0.03,0.02 0.01,-0.03 0.03,0.02 6.64,-3.81 13.27,-7.62 19.93,-11.45 -6.67,-3.83 -13.31,-7.64 -19.93,-11.45 -0.05,0.04 -0.05,0.07 -0.05,0.11 z"
     id="path1874" /></g></svg>
